<svg xmlns="http://www.w3.org/2000/svg" xmlns:xlink="http://www.w3.org/1999/xlink" width="198" height="178.815" viewBox="0 0 198 178.815">
  <defs>
    <clipPath id="clip-path">
      <path id="Path_313" data-name="Path 313" d="M106.973,120.15a32.657,32.657,0,0,0-17.207,4.911,22.943,22.943,0,0,1,6.305,4.209c3.882,3.607,5.561,8.975,5.791,14.151.22,4.984-2.362,10.679-5.791,14.149a20.277,20.277,0,0,1-13.982,5.861H80.77a18.586,18.586,0,0,1-5.8-1.019,33.211,33.211,0,1,0,32-42.262Z" transform="translate(-74.973 -120.15)" fill="none"/>
    </clipPath>
  </defs>
  <g id="Group_2818" data-name="Group 2818" transform="translate(-89 -84.694)">
    <g id="Group_2775" data-name="Group 2775" transform="translate(17.957 -136.283)">
      <g id="Group_48" data-name="Group 48" transform="translate(95.043 222.977)">
        <path id="Path_319" data-name="Path 319" d="M215.426,350.305v-44.36c-10.956-6.2-27.572-10.148-46.177-10.148s-35.223,3.952-46.179,10.148v44.36s-.327,39.109,46.179,49.856C215.753,389.415,215.426,350.305,215.426,350.305Z" transform="translate(-95.017 -295.798)" fill="none" stroke="#000" stroke-miterlimit="10" stroke-width="4"/>
        <g id="Group_39" data-name="Group 39" transform="translate(0 60.775)">
          <g id="Group_38" data-name="Group 38" transform="translate(0 0)">
            <g id="Group_35" data-name="Group 35" transform="translate(76.544)">
              <g id="Group_34" data-name="Group 34">
                <path id="Path_409" data-name="Path 409" d="M237.787,387.8a11.158,11.158,0,0,1-1.411,4.29,11.381,11.381,0,0,1-2.891,3.623c-2.474,1.907-4.854,2.161-6.422,1.217a12.652,12.652,0,0,1,1.736-3.67,13.438,13.438,0,0,1,2.751-3.365C233.836,387.938,236.081,387.1,237.787,387.8Z" transform="translate(-165.864 -373.941)"/>
                <path id="Path_410" data-name="Path 410" d="M234.821,398.686a12.27,12.27,0,0,1-5.579,7.061c-2.671,1.5-5.18,1.27-6.525.09a10.6,10.6,0,0,1,1.038-1.681c.411-.545.781-1.133,1.259-1.656a13.781,13.781,0,0,1,3.373-2.8C230.9,398.138,233.236,397.694,234.821,398.686Z" transform="translate(-166.388 -372.661)"/>
                <path id="Path_411" data-name="Path 411" d="M230.017,408.891a12.809,12.809,0,0,1-2.7,3.609,13.626,13.626,0,0,1-4.038,2.36c-2.826,1.066-5.262.406-6.394-.992a14.573,14.573,0,0,1,6.622-5.086C226.175,407.627,228.661,407.663,230.017,408.891Z" transform="translate(-167.092 -371.48)"/>
                <path id="Path_412" data-name="Path 412" d="M223.518,418.125a13.9,13.9,0,0,1-3.314,3.061,8.192,8.192,0,0,1-2.1,1.05,12.786,12.786,0,0,1-2.263.593c-3.031.494-5.2-.435-6.1-2.041a11.545,11.545,0,0,1,3.247-2.418,14.379,14.379,0,0,1,2.024-.842,13.277,13.277,0,0,1,2.077-.666C219.94,416.21,222.4,416.688,223.518,418.125Z" transform="translate(-167.955 -370.438)"/>
                <path id="Path_413" data-name="Path 413" d="M215.523,426.144a14.458,14.458,0,0,1-6.056,3.114,11.1,11.1,0,0,1-2.34.183c-3.1-.075-5.086-1.382-5.7-3.109a11.589,11.589,0,0,1,3.658-1.761,17.275,17.275,0,0,1,4.273-.821C212.313,423.633,214.667,424.539,215.523,426.144Z" transform="translate(-168.958 -369.574)"/>
                <path id="Path_414" data-name="Path 414" d="M206.179,432.632a10.457,10.457,0,0,1-4.17,1.721,12.186,12.186,0,0,1-4.63.161c-3.057-.655-4.8-2.305-5.1-4.106a14.038,14.038,0,0,1,3.916-1.073,13.569,13.569,0,0,1,4.354-.074C203.53,429.751,205.586,430.851,206.179,432.632Z" transform="translate(-170.062 -368.924)"/>
                <path id="Path_415" data-name="Path 415" d="M195.841,437.471a12.146,12.146,0,0,1-9,.327,7.016,7.016,0,0,1-3.233-2.164,4.242,4.242,0,0,1-1.065-2.722,11.27,11.27,0,0,1,1.953-.293,12.856,12.856,0,0,1,2.076-.142,13.9,13.9,0,0,1,4.325.773C193.7,434.1,195.57,435.634,195.841,437.471Z" transform="translate(-171.237 -368.519)"/>
                <path id="Path_416" data-name="Path 416" d="M184.821,440.526a13.942,13.942,0,0,1-4.5.281,12.45,12.45,0,0,1-4.412-1.551c-2.645-1.548-3.723-3.64-3.4-5.455a11.557,11.557,0,0,1,4.045.194,20.8,20.8,0,0,1,4.123,1.483C183.289,436.778,184.877,438.7,184.821,440.526Z" transform="translate(-172.455 -368.371)"/>
                <path id="Path_417" data-name="Path 417" d="M227.548,397.2c-1.792-.329-3.423-2.128-4.271-4.658a14.125,14.125,0,0,1-.832-3.878,11.826,11.826,0,0,1,.435-3.536c1.809.05,3.829,1.4,4.838,4a11.621,11.621,0,0,1,.81,4.176A10.445,10.445,0,0,1,227.548,397.2Z" transform="translate(-166.424 -374.234)"/>
                <path id="Path_418" data-name="Path 418" d="M224.648,398.435a11.29,11.29,0,0,1-.007,4.214,8.5,8.5,0,0,1-.578,2,10.581,10.581,0,0,1-1.012,1.691c-1.745-.652-2.922-2.639-3.414-5.328a12.282,12.282,0,0,1,.864-7.383C222.25,393.985,224.028,395.676,224.648,398.435Z" transform="translate(-166.789 -373.207)"/>
                <path id="Path_419" data-name="Path 419" d="M220.018,407.052a9.754,9.754,0,0,1-.746,4.139,8.728,8.728,0,0,1-2.172,3.393c-1.6-.937-2.409-3.093-2.492-5.877a11.055,11.055,0,0,1,.628-3.875,9.735,9.735,0,0,1,1.526-3.233C218.454,402.27,219.8,404.171,220.018,407.052Z" transform="translate(-167.367 -372.246)"/>
                <path id="Path_420" data-name="Path 420" d="M213.981,414.7a10.935,10.935,0,0,1-.452,2.11,11.63,11.63,0,0,1-.959,1.869,11.474,11.474,0,0,1-2.7,2.99c-1.386-1.163-1.941-3.563-1.479-6.248a11.39,11.39,0,0,1,.515-1.931c.236-.6.5-1.195.753-1.79a8.881,8.881,0,0,1,2.1-2.895C213.312,409.761,214.3,411.851,213.981,414.7Z" transform="translate(-168.137 -371.377)"/>
                <path id="Path_421" data-name="Path 421" d="M206.764,421.181a9.653,9.653,0,0,1-2.045,3.714,11.355,11.355,0,0,1-3.221,2.417c-1.169-1.392-1.289-3.831-.351-6.357a13.63,13.63,0,0,1,.849-1.8,11.442,11.442,0,0,1,1.01-1.687,8.788,8.788,0,0,1,2.611-2.431C206.991,416.253,207.591,418.471,206.764,421.181Z" transform="translate(-169.067 -370.624)"/>
                <path id="Path_422" data-name="Path 422" d="M198.567,426.328a11.522,11.522,0,0,1-2.659,3.307,9.658,9.658,0,0,1-3.6,1.8c-.911-1.581-.6-3.984.775-6.26a12.881,12.881,0,0,1,2.411-3.16,13.358,13.358,0,0,1,2.963-1.978A5.75,5.75,0,0,1,198.567,426.328Z" transform="translate(-170.121 -370.021)"/>
                <path id="Path_423" data-name="Path 423" d="M189.613,429.985a11.208,11.208,0,0,1-3.216,2.709,12.505,12.505,0,0,1-1.893.883,9.661,9.661,0,0,1-1.947.314,4.477,4.477,0,0,1,.035-2.89,10.775,10.775,0,0,1,1.8-3.181,12.432,12.432,0,0,1,6.183-4.122C191.442,425.271,191.3,427.676,189.613,429.985Z" transform="translate(-171.262 -369.579)"/>
                <path id="Path_424" data-name="Path 424" d="M180.134,431.93a8.719,8.719,0,0,1-3.631,2.132,11.272,11.272,0,0,1-3.992.6c-.323-1.776.783-3.982,2.853-5.766a12.355,12.355,0,0,1,3.356-2.022,8.88,8.88,0,0,1,3.455-.932C182.763,427.666,182.19,429.918,180.134,431.93Z" transform="translate(-172.454 -369.309)"/>
                <path id="Path_425" data-name="Path 425" d="M229.22,390.871a7.167,7.167,0,0,1-.605-1.577c-.141-.581-.25-1.217-.382-1.9a14.55,14.55,0,0,1,.012-4.476c.072-.4.145-.787.213-1.171.049-.383.111-.759.186-1.124a13.342,13.342,0,0,1,.593-2.063,9.278,9.278,0,0,1,1.9-3.149,8.092,8.092,0,0,1,1.572,3.319,14.874,14.874,0,0,1,.375,2.256c.037.4.059.811.065,1.229a11.639,11.639,0,0,1-.134,1.27,16.1,16.1,0,0,1-1.366,4.56,6.288,6.288,0,0,1-1.12,1.673A6.805,6.805,0,0,1,229.22,390.871Z" transform="translate(-165.743 -375.407)"/>
              </g>
            </g>
            <g id="Group_37" data-name="Group 37">
              <g id="Group_36" data-name="Group 36">
                <path id="Path_426" data-name="Path 426" d="M104.154,387.8a11.153,11.153,0,0,0,1.409,4.29,11.408,11.408,0,0,0,2.89,3.623c2.474,1.907,4.856,2.161,6.424,1.217a12.71,12.71,0,0,0-1.736-3.67,13.463,13.463,0,0,0-2.751-3.365C108.1,387.938,105.86,387.1,104.154,387.8Z" transform="translate(-104.154 -373.941)"/>
                <path id="Path_427" data-name="Path 427" d="M107.267,398.686a12.261,12.261,0,0,0,5.579,7.061c2.671,1.5,5.179,1.27,6.526.09a10.768,10.768,0,0,0-1.039-1.681c-.411-.545-.78-1.133-1.259-1.656a13.838,13.838,0,0,0-3.372-2.8C111.187,398.138,108.854,397.694,107.267,398.686Z" transform="translate(-103.778 -372.661)"/>
                <path id="Path_428" data-name="Path 428" d="M112.182,408.891a12.772,12.772,0,0,0,2.7,3.609,13.593,13.593,0,0,0,4.037,2.36c2.825,1.066,5.261.406,6.395-.992a14.58,14.58,0,0,0-6.624-5.086C116.025,407.627,113.538,407.663,112.182,408.891Z" transform="translate(-103.185 -371.48)"/>
                <path id="Path_429" data-name="Path 429" d="M118.751,418.125a13.9,13.9,0,0,0,3.314,3.061,8.184,8.184,0,0,0,2.1,1.05,12.81,12.81,0,0,0,2.263.593c3.033.494,5.2-.435,6.1-2.041a11.561,11.561,0,0,0-3.247-2.418,14.285,14.285,0,0,0-2.025-.842,13.216,13.216,0,0,0-2.078-.666C122.329,416.21,119.872,416.688,118.751,418.125Z" transform="translate(-102.392 -370.438)"/>
                <path id="Path_430" data-name="Path 430" d="M126.78,426.144a14.435,14.435,0,0,0,6.057,3.114,11.078,11.078,0,0,0,2.338.183c3.1-.075,5.088-1.382,5.7-3.109a11.614,11.614,0,0,0-3.66-1.761,17.266,17.266,0,0,0-4.272-.821C129.99,423.633,127.636,424.539,126.78,426.144Z" transform="translate(-101.423 -369.574)"/>
                <path id="Path_431" data-name="Path 431" d="M136.1,432.632a10.452,10.452,0,0,0,4.169,1.721,12.193,12.193,0,0,0,4.631.161c3.058-.655,4.8-2.305,5.1-4.106a14.013,14.013,0,0,0-3.913-1.073,13.583,13.583,0,0,0-4.356-.074C138.752,429.751,136.695,430.851,136.1,432.632Z" transform="translate(-100.298 -368.924)"/>
                <path id="Path_432" data-name="Path 432" d="M146.375,437.471a12.146,12.146,0,0,0,9,.327,7.014,7.014,0,0,0,3.234-2.164,4.241,4.241,0,0,0,1.064-2.722,11.234,11.234,0,0,0-1.954-.293,12.82,12.82,0,0,0-2.073-.142,13.914,13.914,0,0,0-4.326.773C148.513,434.1,146.645,435.634,146.375,437.471Z" transform="translate(-99.058 -368.519)"/>
                <path id="Path_433" data-name="Path 433" d="M157.3,440.526a13.945,13.945,0,0,0,4.5.281,12.447,12.447,0,0,0,4.41-1.551c2.646-1.548,3.723-3.64,3.4-5.455a11.565,11.565,0,0,0-4.046.194,20.769,20.769,0,0,0-4.122,1.483C158.827,436.778,157.24,438.7,157.3,440.526Z" transform="translate(-97.741 -368.371)"/>
                <path id="Path_434" data-name="Path 434" d="M113.895,397.2c1.792-.329,3.423-2.128,4.271-4.658a14.208,14.208,0,0,0,.832-3.878,11.789,11.789,0,0,0-.436-3.536c-1.808.05-3.828,1.4-4.836,4a11.6,11.6,0,0,0-.812,4.176A10.467,10.467,0,0,0,113.895,397.2Z" transform="translate(-103.097 -374.234)"/>
                <path id="Path_435" data-name="Path 435" d="M116.723,398.435a11.336,11.336,0,0,0,.006,4.214,8.558,8.558,0,0,0,.581,2,10.579,10.579,0,0,0,1.011,1.691c1.747-.652,2.924-2.639,3.416-5.328a12.3,12.3,0,0,0-.865-7.383C119.121,393.985,117.343,395.676,116.723,398.435Z" transform="translate(-102.661 -373.207)"/>
                <path id="Path_436" data-name="Path 436" d="M121.351,407.052a9.755,9.755,0,0,0,.747,4.139,8.713,8.713,0,0,0,2.171,3.393c1.595-.937,2.411-3.093,2.492-5.877a11,11,0,0,0-.628-3.875,9.735,9.735,0,0,0-1.526-3.233C122.913,402.27,121.565,404.171,121.351,407.052Z" transform="translate(-102.081 -372.246)"/>
                <path id="Path_437" data-name="Path 437" d="M127.43,414.7a10.849,10.849,0,0,0,.451,2.11,11.73,11.73,0,0,0,.96,1.869,11.49,11.49,0,0,0,2.7,2.99c1.387-1.163,1.939-3.563,1.48-6.248a11.392,11.392,0,0,0-.517-1.931c-.235-.6-.5-1.195-.753-1.79a8.881,8.881,0,0,0-2.1-2.895C128.1,409.761,127.11,411.851,127.43,414.7Z" transform="translate(-101.352 -371.377)"/>
                <path id="Path_438" data-name="Path 438" d="M134.733,421.181a9.641,9.641,0,0,0,2.046,3.714A11.323,11.323,0,0,0,140,427.313c1.168-1.392,1.288-3.831.351-6.357a13.63,13.63,0,0,0-.849-1.8,11.541,11.541,0,0,0-1.011-1.687,8.808,8.808,0,0,0-2.609-2.431C134.506,416.253,133.906,418.471,134.733,421.181Z" transform="translate(-100.509 -370.624)"/>
                <path id="Path_439" data-name="Path 439" d="M143.04,426.328a11.568,11.568,0,0,0,2.662,3.307,9.662,9.662,0,0,0,3.6,1.8c.913-1.581.6-3.984-.774-6.26a12.885,12.885,0,0,0-2.412-3.16,13.358,13.358,0,0,0-2.963-1.978A5.756,5.756,0,0,0,143.04,426.328Z" transform="translate(-99.566 -370.021)"/>
                <path id="Path_440" data-name="Path 440" d="M152.116,429.985a11.213,11.213,0,0,0,3.214,2.709,12.63,12.63,0,0,0,1.9.883,9.663,9.663,0,0,0,1.946.314,4.477,4.477,0,0,0-.034-2.89,10.736,10.736,0,0,0-1.8-3.181,12.422,12.422,0,0,0-6.181-4.122C150.286,425.271,150.43,427.676,152.116,429.985Z" transform="translate(-98.545 -369.579)"/>
                <path id="Path_441" data-name="Path 441" d="M161.723,431.93a8.715,8.715,0,0,0,3.63,2.132,11.276,11.276,0,0,0,3.992.6c.322-1.776-.783-3.982-2.852-5.766a12.383,12.383,0,0,0-3.359-2.022,8.88,8.88,0,0,0-3.455-.932C159.092,427.666,159.666,429.918,161.723,431.93Z" transform="translate(-97.479 -369.309)"/>
                <path id="Path_442" data-name="Path 442" d="M112.112,390.871a7.279,7.279,0,0,0,.605-1.577c.141-.581.25-1.217.382-1.9a14.482,14.482,0,0,0-.013-4.476c-.073-.4-.143-.787-.213-1.171-.048-.383-.11-.759-.186-1.124a13.221,13.221,0,0,0-.592-2.063,9.278,9.278,0,0,0-1.9-3.149,8.12,8.12,0,0,0-1.573,3.319,14.872,14.872,0,0,0-.374,2.256q-.055.6-.065,1.229a11.106,11.106,0,0,0,.134,1.27,16.1,16.1,0,0,0,1.366,4.56,6.262,6.262,0,0,0,1.12,1.673A6.839,6.839,0,0,0,112.112,390.871Z" transform="translate(-103.668 -375.407)"/>
              </g>
            </g>
          </g>
        </g>
        <g id="Group_44" data-name="Group 44" transform="translate(36.233 8.658)">
          <g id="Group_7" data-name="Group 7" transform="translate(0 0)">
            <ellipse id="Ellipse_1" data-name="Ellipse 1" cx="35.629" cy="35.629" rx="35.629" ry="35.629" transform="translate(0 0)" fill="#292828"/>
            <path id="Path_6" data-name="Path 6" d="M107.323,120.15a33.292,33.292,0,0,0-17.395,4.909,23.214,23.214,0,0,1,6.374,4.207c3.924,3.606,5.622,8.971,5.854,14.145.223,4.982-2.388,10.675-5.854,14.144a20.616,20.616,0,0,1-14.135,5.859H80.834a18.98,18.98,0,0,1-5.861-1.018,33.516,33.516,0,1,0,32.35-42.245Z" transform="translate(-71.686 -117.802)" fill="#24b775"/>
            <g id="Group_6" data-name="Group 6" transform="translate(4 2.339)">
              <g id="Group_5" data-name="Group 5" transform="translate(0 0)" clip-path="url(#clip-path)">
                <g id="Group_4" data-name="Group 4" transform="translate(-60.275 -34.612)">
                  <path id="Path_7" data-name="Path 7" d="M68.14,102.667a2.372,2.372,0,0,0,3.154-.941,2.227,2.227,0,0,0-.971-3.058,2.372,2.372,0,0,0-3.154.941A2.229,2.229,0,0,0,68.14,102.667Z" transform="translate(-19.889 -98.406)" fill="#fff"/>
                  <path id="Path_8" data-name="Path 8" d="M71.519,104.455a2.373,2.373,0,0,0,3.156-.941,2.227,2.227,0,0,0-.973-3.056,2.372,2.372,0,0,0-3.154.941A2.227,2.227,0,0,0,71.519,104.455Z" transform="translate(-17.717 -97.347)" fill="#fff"/>
                  <path id="Path_9" data-name="Path 9" d="M74.9,106.244a2.373,2.373,0,0,0,3.156-.942,2.227,2.227,0,0,0-.971-3.056,2.374,2.374,0,0,0-3.156.941A2.229,2.229,0,0,0,74.9,106.244Z" transform="translate(-15.545 -96.289)" fill="#fff"/>
                  <path id="Path_10" data-name="Path 10" d="M78.278,108.032a2.372,2.372,0,0,0,3.154-.941,2.227,2.227,0,0,0-.971-3.056,2.37,2.37,0,0,0-3.154.941A2.226,2.226,0,0,0,78.278,108.032Z" transform="translate(-13.372 -95.23)" fill="#fff"/>
                  <path id="Path_11" data-name="Path 11" d="M81.657,109.821a2.371,2.371,0,0,0,3.154-.942,2.226,2.226,0,0,0-.971-3.056,2.372,2.372,0,0,0-3.154.941A2.228,2.228,0,0,0,81.657,109.821Z" transform="translate(-11.2 -94.172)" fill="#fff"/>
                  <path id="Path_12" data-name="Path 12" d="M85.036,111.609a2.372,2.372,0,0,0,3.154-.941,2.226,2.226,0,0,0-.971-3.056,2.371,2.371,0,0,0-3.154.941A2.227,2.227,0,0,0,85.036,111.609Z" transform="translate(-9.028 -93.114)" fill="#fff"/>
                  <path id="Path_13" data-name="Path 13" d="M88.415,113.4a2.37,2.37,0,0,0,3.154-.941A2.226,2.226,0,0,0,90.6,109.4a2.372,2.372,0,0,0-3.154.941A2.227,2.227,0,0,0,88.415,113.4Z" transform="translate(-6.856 -92.055)" fill="#fff"/>
                  <path id="Path_14" data-name="Path 14" d="M91.794,115.186a2.372,2.372,0,0,0,3.154-.941,2.228,2.228,0,0,0-.971-3.058,2.371,2.371,0,0,0-3.154.942A2.227,2.227,0,0,0,91.794,115.186Z" transform="translate(-4.684 -90.997)" fill="#fff"/>
                  <path id="Path_15" data-name="Path 15" d="M95.177,116.933A2.337,2.337,0,0,0,98.284,116a2.192,2.192,0,0,0-.956-3.01,2.337,2.337,0,0,0-3.108.926A2.195,2.195,0,0,0,95.177,116.933Z" transform="translate(-2.498 -89.926)" fill="#fff"/>
                  <path id="Path_16" data-name="Path 16" d="M98.557,118.7a2.319,2.319,0,0,0,3.084-.92,2.176,2.176,0,0,0-.95-2.988,2.317,2.317,0,0,0-3.084.918A2.178,2.178,0,0,0,98.557,118.7Z" transform="translate(-0.319 -88.861)" fill="#fff"/>
                  <path id="Path_17" data-name="Path 17" d="M101.936,120.488a2.318,2.318,0,0,0,3.084-.92,2.176,2.176,0,0,0-.95-2.988,2.318,2.318,0,0,0-3.084.92A2.176,2.176,0,0,0,101.936,120.488Z" transform="translate(1.853 -87.803)" fill="#fff"/>
                  <path id="Path_18" data-name="Path 18" d="M105.312,122.318a2.355,2.355,0,0,0,3.131-.933,2.211,2.211,0,0,0-.964-3.034,2.351,2.351,0,0,0-3.13.933A2.209,2.209,0,0,0,105.312,122.318Z" transform="translate(4.012 -86.757)" fill="#fff"/>
                  <path id="Path_19" data-name="Path 19" d="M108.69,124.128a2.372,2.372,0,0,0,3.154-.941,2.226,2.226,0,0,0-.971-3.056,2.371,2.371,0,0,0-3.154.941A2.227,2.227,0,0,0,108.69,124.128Z" transform="translate(6.177 -85.705)" fill="#fff"/>
                  <path id="Path_20" data-name="Path 20" d="M112.069,125.917a2.373,2.373,0,0,0,3.156-.942,2.227,2.227,0,0,0-.971-3.056,2.374,2.374,0,0,0-3.156.941A2.229,2.229,0,0,0,112.069,125.917Z" transform="translate(8.349 -84.647)" fill="#fff"/>
                  <path id="Path_21" data-name="Path 21" d="M115.449,127.7a2.372,2.372,0,0,0,3.154-.941,2.227,2.227,0,0,0-.971-3.056,2.37,2.37,0,0,0-3.154.941A2.225,2.225,0,0,0,115.449,127.7Z" transform="translate(10.521 -83.588)" fill="#fff"/>
                  <path id="Path_22" data-name="Path 22" d="M118.828,129.493a2.371,2.371,0,0,0,3.154-.941,2.227,2.227,0,0,0-.971-3.056,2.372,2.372,0,0,0-3.154.941A2.226,2.226,0,0,0,118.828,129.493Z" transform="translate(12.693 -82.53)" fill="#fff"/>
                  <path id="Path_23" data-name="Path 23" d="M122.207,131.282a2.372,2.372,0,0,0,3.154-.941,2.226,2.226,0,0,0-.971-3.056,2.371,2.371,0,0,0-3.154.941A2.227,2.227,0,0,0,122.207,131.282Z" transform="translate(14.865 -81.471)" fill="#fff"/>
                  <path id="Path_24" data-name="Path 24" d="M125.586,133.07a2.37,2.37,0,0,0,3.154-.941,2.226,2.226,0,0,0-.971-3.056,2.372,2.372,0,0,0-3.154.941A2.227,2.227,0,0,0,125.586,133.07Z" transform="translate(17.037 -80.413)" fill="#fff"/>
                  <path id="Path_25" data-name="Path 25" d="M66.352,106.046a2.372,2.372,0,0,0,3.154-.941,2.227,2.227,0,0,0-.971-3.056,2.37,2.37,0,0,0-3.154.941A2.226,2.226,0,0,0,66.352,106.046Z" transform="translate(-21.038 -96.406)" fill="#fff"/>
                  <path id="Path_26" data-name="Path 26" d="M69.731,107.834a2.371,2.371,0,0,0,3.154-.941,2.227,2.227,0,0,0-.971-3.056,2.372,2.372,0,0,0-3.154.941A2.226,2.226,0,0,0,69.731,107.834Z" transform="translate(-18.866 -95.347)" fill="#fff"/>
                  <path id="Path_27" data-name="Path 27" d="M73.11,109.623a2.372,2.372,0,0,0,3.154-.941,2.227,2.227,0,0,0-.971-3.058,2.371,2.371,0,0,0-3.154.942A2.227,2.227,0,0,0,73.11,109.623Z" transform="translate(-16.694 -94.289)" fill="#fff"/>
                  <path id="Path_28" data-name="Path 28" d="M76.489,111.411a2.37,2.37,0,0,0,3.154-.941,2.226,2.226,0,0,0-.971-3.056,2.372,2.372,0,0,0-3.154.941A2.227,2.227,0,0,0,76.489,111.411Z" transform="translate(-14.522 -93.231)" fill="#fff"/>
                  <path id="Path_29" data-name="Path 29" d="M79.87,113.2a2.37,2.37,0,0,0,3.153-.941,2.228,2.228,0,0,0-.969-3.058,2.374,2.374,0,0,0-3.156.941A2.228,2.228,0,0,0,79.87,113.2Z" transform="translate(-12.35 -92.172)" fill="#fff"/>
                  <path id="Path_30" data-name="Path 30" d="M83.249,114.988a2.372,2.372,0,0,0,3.154-.941,2.227,2.227,0,0,0-.971-3.056,2.373,2.373,0,0,0-3.156.941A2.227,2.227,0,0,0,83.249,114.988Z" transform="translate(-10.178 -91.114)" fill="#fff"/>
                  <path id="Path_31" data-name="Path 31" d="M86.627,116.777a2.372,2.372,0,0,0,3.154-.941,2.229,2.229,0,0,0-.971-3.058,2.372,2.372,0,0,0-3.154.941A2.227,2.227,0,0,0,86.627,116.777Z" transform="translate(-8.006 -90.056)" fill="#fff"/>
                  <path id="Path_32" data-name="Path 32" d="M90.006,118.565a2.372,2.372,0,0,0,3.154-.941,2.227,2.227,0,0,0-.971-3.056,2.371,2.371,0,0,0-3.154.941A2.226,2.226,0,0,0,90.006,118.565Z" transform="translate(-5.834 -88.997)" fill="#fff"/>
                  <path id="Path_33" data-name="Path 33" d="M93.388,120.312a2.335,2.335,0,0,0,3.107-.928,2.192,2.192,0,0,0-.956-3.01,2.334,2.334,0,0,0-3.107.926A2.194,2.194,0,0,0,93.388,120.312Z" transform="translate(-3.648 -87.926)" fill="#fff"/>
                  <path id="Path_34" data-name="Path 34" d="M96.768,122.079a2.317,2.317,0,0,0,3.084-.92,2.176,2.176,0,0,0-.948-2.988,2.32,2.32,0,0,0-3.085.92A2.176,2.176,0,0,0,96.768,122.079Z" transform="translate(-1.469 -86.861)" fill="#fff"/>
                  <path id="Path_35" data-name="Path 35" d="M100.147,123.867a2.32,2.32,0,0,0,3.085-.92,2.178,2.178,0,0,0-.95-2.988,2.317,2.317,0,0,0-3.084.92A2.176,2.176,0,0,0,100.147,123.867Z" transform="translate(0.703 -85.803)" fill="#fff"/>
                  <path id="Path_36" data-name="Path 36" d="M103.525,125.7a2.351,2.351,0,0,0,3.13-.933,2.209,2.209,0,0,0-.963-3.034,2.353,2.353,0,0,0-3.131.934A2.208,2.208,0,0,0,103.525,125.7Z" transform="translate(2.862 -84.757)" fill="#fff"/>
                  <path id="Path_37" data-name="Path 37" d="M106.9,127.507a2.371,2.371,0,0,0,3.154-.941,2.227,2.227,0,0,0-.971-3.056,2.37,2.37,0,0,0-3.154.941A2.226,2.226,0,0,0,106.9,127.507Z" transform="translate(5.027 -83.705)" fill="#fff"/>
                  <path id="Path_38" data-name="Path 38" d="M110.281,129.3a2.372,2.372,0,0,0,3.154-.941,2.227,2.227,0,0,0-.971-3.058,2.371,2.371,0,0,0-3.154.942A2.227,2.227,0,0,0,110.281,129.3Z" transform="translate(7.199 -82.647)" fill="#fff"/>
                  <path id="Path_39" data-name="Path 39" d="M113.66,131.084a2.372,2.372,0,0,0,3.154-.941,2.226,2.226,0,0,0-.971-3.056,2.371,2.371,0,0,0-3.154.941A2.227,2.227,0,0,0,113.66,131.084Z" transform="translate(9.371 -81.588)" fill="#fff"/>
                  <path id="Path_40" data-name="Path 40" d="M117.039,132.873a2.371,2.371,0,0,0,3.154-.942,2.225,2.225,0,0,0-.971-3.056,2.372,2.372,0,0,0-3.154.941A2.229,2.229,0,0,0,117.039,132.873Z" transform="translate(11.543 -80.53)" fill="#fff"/>
                  <path id="Path_41" data-name="Path 41" d="M120.419,134.661a2.372,2.372,0,0,0,3.154-.941,2.227,2.227,0,0,0-.971-3.056,2.37,2.37,0,0,0-3.154.941A2.226,2.226,0,0,0,120.419,134.661Z" transform="translate(13.716 -79.471)" fill="#fff"/>
                  <path id="Path_42" data-name="Path 42" d="M123.8,136.449a2.371,2.371,0,0,0,3.154-.941,2.227,2.227,0,0,0-.971-3.056,2.372,2.372,0,0,0-3.154.941A2.225,2.225,0,0,0,123.8,136.449Z" transform="translate(15.888 -78.413)" fill="#fff"/>
                  <path id="Path_43" data-name="Path 43" d="M64.563,109.425a2.372,2.372,0,0,0,3.154-.941,2.226,2.226,0,0,0-.971-3.056,2.371,2.371,0,0,0-3.154.941A2.227,2.227,0,0,0,64.563,109.425Z" transform="translate(-22.188 -94.406)" fill="#fff"/>
                  <path id="Path_44" data-name="Path 44" d="M67.942,111.214a2.373,2.373,0,0,0,3.156-.942,2.227,2.227,0,0,0-.971-3.056,2.374,2.374,0,0,0-3.156.941A2.229,2.229,0,0,0,67.942,111.214Z" transform="translate(-20.016 -93.348)" fill="#fff"/>
                  <path id="Path_45" data-name="Path 45" d="M71.323,113a2.372,2.372,0,0,0,3.154-.941A2.227,2.227,0,0,0,73.506,109a2.373,2.373,0,0,0-3.156.941A2.227,2.227,0,0,0,71.323,113Z" transform="translate(-17.844 -92.289)" fill="#fff"/>
                  <path id="Path_46" data-name="Path 46" d="M74.7,114.79a2.371,2.371,0,0,0,3.154-.941,2.227,2.227,0,0,0-.971-3.056,2.372,2.372,0,0,0-3.154.941A2.226,2.226,0,0,0,74.7,114.79Z" transform="translate(-15.672 -91.231)" fill="#fff"/>
                  <path id="Path_47" data-name="Path 47" d="M78.08,116.579a2.372,2.372,0,0,0,3.154-.941,2.226,2.226,0,0,0-.971-3.056,2.369,2.369,0,0,0-3.154.941A2.226,2.226,0,0,0,78.08,116.579Z" transform="translate(-13.5 -90.173)" fill="#fff"/>
                  <path id="Path_48" data-name="Path 48" d="M81.459,118.367a2.37,2.37,0,0,0,3.154-.941,2.226,2.226,0,0,0-.971-3.056,2.372,2.372,0,0,0-3.154.941A2.227,2.227,0,0,0,81.459,118.367Z" transform="translate(-11.327 -89.114)" fill="#fff"/>
                  <path id="Path_49" data-name="Path 49" d="M84.846,120.029a2.267,2.267,0,0,0,3.013-.9,2.126,2.126,0,0,0-.927-2.919,2.267,2.267,0,0,0-3.015.9A2.13,2.13,0,0,0,84.846,120.029Z" transform="translate(-9.114 -88.018)" fill="#fff"/>
                  <path id="Path_50" data-name="Path 50" d="M88.233,121.69a2.16,2.16,0,0,0,2.872-.856,2.029,2.029,0,0,0-.884-2.784,2.159,2.159,0,0,0-2.872.858A2.028,2.028,0,0,0,88.233,121.69Z" transform="translate(-6.901 -86.922)" fill="#fff"/>
                  <path id="Path_51" data-name="Path 51" d="M91.618,123.394a2.088,2.088,0,0,0,2.778-.829,1.961,1.961,0,0,0-.856-2.692,2.087,2.087,0,0,0-2.776.829A1.959,1.959,0,0,0,91.618,123.394Z" transform="translate(-4.702 -85.839)" fill="#fff"/>
                  <path id="Path_52" data-name="Path 52" d="M95,125.161a2.073,2.073,0,0,0,2.755-.821,1.946,1.946,0,0,0-.848-2.669,2.073,2.073,0,0,0-2.755.821A1.946,1.946,0,0,0,95,125.161Z" transform="translate(-2.523 -84.774)" fill="#fff"/>
                  <path id="Path_53" data-name="Path 53" d="M98.377,126.949a2.07,2.07,0,0,0,2.755-.821,1.945,1.945,0,0,0-.848-2.668,2.07,2.07,0,0,0-2.755.821A1.945,1.945,0,0,0,98.377,126.949Z" transform="translate(-0.351 -83.715)" fill="#fff"/>
                  <path id="Path_54" data-name="Path 54" d="M101.754,128.8a2.124,2.124,0,0,0,2.824-.844,1.993,1.993,0,0,0-.869-2.736,2.124,2.124,0,0,0-2.826.842A2,2,0,0,0,101.754,128.8Z" transform="translate(1.801 -82.676)" fill="#fff"/>
                  <path id="Path_55" data-name="Path 55" d="M105.127,130.675a2.2,2.2,0,0,0,2.919-.871,2.061,2.061,0,0,0-.9-2.829,2.194,2.194,0,0,0-2.919.871A2.06,2.06,0,0,0,105.127,130.675Z" transform="translate(3.946 -81.643)" fill="#fff"/>
                  <path id="Path_56" data-name="Path 56" d="M108.5,132.589a2.3,2.3,0,0,0,3.061-.912,2.16,2.16,0,0,0-.941-2.966,2.3,2.3,0,0,0-3.061.912A2.161,2.161,0,0,0,108.5,132.589Z" transform="translate(6.077 -80.622)" fill="#fff"/>
                  <path id="Path_57" data-name="Path 57" d="M111.872,134.463a2.371,2.371,0,0,0,3.154-.941,2.227,2.227,0,0,0-.971-3.056,2.372,2.372,0,0,0-3.154.941A2.226,2.226,0,0,0,111.872,134.463Z" transform="translate(8.222 -79.589)" fill="#fff"/>
                  <path id="Path_58" data-name="Path 58" d="M115.251,136.252a2.372,2.372,0,0,0,3.154-.941,2.227,2.227,0,0,0-.971-3.058,2.371,2.371,0,0,0-3.154.942A2.226,2.226,0,0,0,115.251,136.252Z" transform="translate(10.394 -78.53)" fill="#fff"/>
                  <path id="Path_59" data-name="Path 59" d="M118.63,138.04a2.37,2.37,0,0,0,3.154-.941,2.226,2.226,0,0,0-.971-3.056,2.372,2.372,0,0,0-3.154.941A2.227,2.227,0,0,0,118.63,138.04Z" transform="translate(12.566 -77.472)" fill="#fff"/>
                  <path id="Path_60" data-name="Path 60" d="M122.009,139.829a2.372,2.372,0,0,0,3.154-.941,2.227,2.227,0,0,0-.971-3.058,2.372,2.372,0,0,0-3.154.941A2.229,2.229,0,0,0,122.009,139.829Z" transform="translate(14.738 -76.414)" fill="#fff"/>
                  <path id="Path_61" data-name="Path 61" d="M62.775,112.8a2.371,2.371,0,0,0,3.154-.941,2.227,2.227,0,0,0-.971-3.056,2.37,2.37,0,0,0-3.154.941A2.226,2.226,0,0,0,62.775,112.8Z" transform="translate(-23.338 -92.406)" fill="#fff"/>
                  <path id="Path_62" data-name="Path 62" d="M66.154,114.593a2.372,2.372,0,0,0,3.154-.941,2.227,2.227,0,0,0-.971-3.058,2.371,2.371,0,0,0-3.154.942A2.227,2.227,0,0,0,66.154,114.593Z" transform="translate(-21.166 -91.348)" fill="#fff"/>
                  <path id="Path_63" data-name="Path 63" d="M69.533,116.381a2.371,2.371,0,0,0,3.154-.941,2.226,2.226,0,0,0-.971-3.056,2.371,2.371,0,0,0-3.154.941A2.227,2.227,0,0,0,69.533,116.381Z" transform="translate(-18.994 -90.289)" fill="#fff"/>
                  <path id="Path_64" data-name="Path 64" d="M72.912,118.17a2.371,2.371,0,0,0,3.154-.942,2.225,2.225,0,0,0-.971-3.056,2.372,2.372,0,0,0-3.154.941A2.229,2.229,0,0,0,72.912,118.17Z" transform="translate(-16.822 -89.231)" fill="#fff"/>
                  <path id="Path_65" data-name="Path 65" d="M76.295,119.895a2.32,2.32,0,0,0,3.085-.92,2.178,2.178,0,0,0-.95-2.988,2.317,2.317,0,0,0-3.084.92A2.176,2.176,0,0,0,76.295,119.895Z" transform="translate(-14.629 -88.154)" fill="#fff"/>
                  <path id="Path_66" data-name="Path 66" d="M79.686,121.492a2.161,2.161,0,0,0,2.873-.856,2.027,2.027,0,0,0-.885-2.782,2.157,2.157,0,0,0-2.872.856A2.028,2.028,0,0,0,79.686,121.492Z" transform="translate(-12.395 -87.039)" fill="#fff"/>
                  <path id="Path_67" data-name="Path 67" d="M83.075,123.132a2.036,2.036,0,0,0,2.707-.807,1.911,1.911,0,0,0-.833-2.623,2.036,2.036,0,0,0-2.707.807A1.911,1.911,0,0,0,83.075,123.132Z" transform="translate(-10.175 -85.937)" fill="#fff"/>
                  <path id="Path_68" data-name="Path 68" d="M86.462,124.793a1.929,1.929,0,0,0,2.566-.766,1.813,1.813,0,0,0-.79-2.486,1.931,1.931,0,0,0-2.566.766A1.812,1.812,0,0,0,86.462,124.793Z" transform="translate(-7.962 -84.841)" fill="#fff"/>
                  <path id="Path_69" data-name="Path 69" d="M89.847,126.5a1.859,1.859,0,0,0,2.472-.737,1.747,1.747,0,0,0-.761-2.4,1.86,1.86,0,0,0-2.472.737A1.745,1.745,0,0,0,89.847,126.5Z" transform="translate(-5.763 -83.757)" fill="#fff"/>
                  <path id="Path_70" data-name="Path 70" d="M93.229,128.244a1.824,1.824,0,0,0,2.425-.724,1.71,1.71,0,0,0-.746-2.348,1.822,1.822,0,0,0-2.425.723A1.712,1.712,0,0,0,93.229,128.244Z" transform="translate(-3.577 -82.686)" fill="#fff"/>
                  <path id="Path_71" data-name="Path 71" d="M96.608,130.031a1.823,1.823,0,0,0,2.425-.723,1.712,1.712,0,0,0-.746-2.349,1.823,1.823,0,0,0-2.425.723A1.712,1.712,0,0,0,96.608,130.031Z" transform="translate(-1.405 -81.628)" fill="#fff"/>
                  <path id="Path_72" data-name="Path 72" d="M99.984,131.884a1.877,1.877,0,0,0,2.5-.745,1.762,1.762,0,0,0-.769-2.418,1.876,1.876,0,0,0-2.5.745A1.762,1.762,0,0,0,99.984,131.884Z" transform="translate(0.747 -80.588)" fill="#fff"/>
                  <path id="Path_73" data-name="Path 73" d="M103.356,133.778a1.965,1.965,0,0,0,2.614-.78,1.845,1.845,0,0,0-.8-2.531,1.965,1.965,0,0,0-2.614.78A1.845,1.845,0,0,0,103.356,133.778Z" transform="translate(2.885 -79.561)" fill="#fff"/>
                  <path id="Path_74" data-name="Path 74" d="M106.725,135.715a2.089,2.089,0,0,0,2.778-.828,1.959,1.959,0,0,0-.854-2.692,2.086,2.086,0,0,0-2.778.828A1.962,1.962,0,0,0,106.725,135.715Z" transform="translate(5.009 -78.547)" fill="#fff"/>
                  <path id="Path_75" data-name="Path 75" d="M110.094,137.674a2.229,2.229,0,0,0,2.965-.885,2.093,2.093,0,0,0-.912-2.875,2.231,2.231,0,0,0-2.967.885A2.1,2.1,0,0,0,110.094,137.674Z" transform="translate(7.127 -77.539)" fill="#fff"/>
                  <path id="Path_76" data-name="Path 76" d="M113.462,139.631a2.374,2.374,0,0,0,3.156-.941,2.227,2.227,0,0,0-.971-3.056,2.372,2.372,0,0,0-3.156.941A2.227,2.227,0,0,0,113.462,139.631Z" transform="translate(9.244 -76.53)" fill="#fff"/>
                  <path id="Path_77" data-name="Path 77" d="M116.842,141.419a2.371,2.371,0,0,0,3.154-.941,2.227,2.227,0,0,0-.971-3.056,2.372,2.372,0,0,0-3.154.941A2.226,2.226,0,0,0,116.842,141.419Z" transform="translate(11.417 -75.472)" fill="#fff"/>
                  <path id="Path_78" data-name="Path 78" d="M120.221,143.208a2.372,2.372,0,0,0,3.154-.941,2.229,2.229,0,0,0-.971-3.058,2.371,2.371,0,0,0-3.154.942A2.226,2.226,0,0,0,120.221,143.208Z" transform="translate(13.589 -74.414)" fill="#fff"/>
                  <path id="Path_79" data-name="Path 79" d="M60.986,116.183a2.37,2.37,0,0,0,3.154-.941,2.226,2.226,0,0,0-.971-3.056,2.372,2.372,0,0,0-3.154.941A2.227,2.227,0,0,0,60.986,116.183Z" transform="translate(-24.488 -90.407)" fill="#fff"/>
                  <path id="Path_80" data-name="Path 80" d="M64.367,117.972a2.372,2.372,0,0,0,3.154-.941,2.227,2.227,0,0,0-.971-3.056,2.37,2.37,0,0,0-3.154.941A2.225,2.225,0,0,0,64.367,117.972Z" transform="translate(-22.315 -89.348)" fill="#fff"/>
                  <path id="Path_81" data-name="Path 81" d="M67.745,119.76a2.371,2.371,0,0,0,3.154-.941,2.227,2.227,0,0,0-.971-3.056,2.372,2.372,0,0,0-3.154.941A2.226,2.226,0,0,0,67.745,119.76Z" transform="translate(-20.143 -88.29)" fill="#fff"/>
                  <path id="Path_82" data-name="Path 82" d="M71.127,121.506a2.334,2.334,0,0,0,3.107-.926,2.194,2.194,0,0,0-.956-3.012,2.335,2.335,0,0,0-3.107.928A2.192,2.192,0,0,0,71.127,121.506Z" transform="translate(-17.957 -87.219)" fill="#fff"/>
                  <path id="Path_83" data-name="Path 83" d="M74.52,123.083a2.16,2.16,0,0,0,2.872-.856,2.029,2.029,0,0,0-.884-2.784,2.161,2.161,0,0,0-2.873.858A2.027,2.027,0,0,0,74.52,123.083Z" transform="translate(-15.717 -86.098)" fill="#fff"/>
                  <path id="Path_84" data-name="Path 84" d="M77.912,124.638a1.964,1.964,0,0,0,2.614-.78,1.843,1.843,0,0,0-.8-2.531,1.964,1.964,0,0,0-2.612.778A1.845,1.845,0,0,0,77.912,124.638Z" transform="translate(-13.47 -84.97)" fill="#fff"/>
                  <path id="Path_85" data-name="Path 85" d="M81.3,126.258a1.824,1.824,0,0,0,2.425-.724,1.712,1.712,0,0,0-.746-2.349,1.824,1.824,0,0,0-2.425.724A1.712,1.712,0,0,0,81.3,126.258Z" transform="translate(-11.243 -83.862)" fill="#fff"/>
                  <path id="Path_86" data-name="Path 86" d="M84.691,127.9a1.7,1.7,0,0,0,2.26-.673,1.6,1.6,0,0,0-.7-2.19,1.7,1.7,0,0,0-2.259.675A1.594,1.594,0,0,0,84.691,127.9Z" transform="translate(-9.023 -82.76)" fill="#fff"/>
                  <path id="Path_87" data-name="Path 87" d="M88.077,129.58a1.61,1.61,0,0,0,2.142-.638,1.512,1.512,0,0,0-.659-2.076,1.609,1.609,0,0,0-2.142.638A1.511,1.511,0,0,0,88.077,129.58Z" transform="translate(-6.817 -81.67)" fill="#fff"/>
                  <path id="Path_88" data-name="Path 88" d="M91.459,131.326a1.576,1.576,0,0,0,2.1-.626,1.481,1.481,0,0,0-.646-2.03,1.577,1.577,0,0,0-2.1.624A1.482,1.482,0,0,0,91.459,131.326Z" transform="translate(-4.631 -80.599)" fill="#fff"/>
                  <path id="Path_89" data-name="Path 89" d="M94.836,133.136a1.6,1.6,0,0,0,2.119-.632,1.5,1.5,0,0,0-.652-2.053,1.593,1.593,0,0,0-2.119.632A1.5,1.5,0,0,0,94.836,133.136Z" transform="translate(-2.466 -79.547)" fill="#fff"/>
                  <path id="Path_90" data-name="Path 90" d="M98.211,135.01a1.666,1.666,0,0,0,2.213-.661,1.563,1.563,0,0,0-.682-2.144,1.664,1.664,0,0,0-2.213.659A1.564,1.564,0,0,0,98.211,135.01Z" transform="translate(-0.321 -78.513)" fill="#fff"/>
                  <path id="Path_91" data-name="Path 91" d="M101.583,136.9a1.754,1.754,0,0,0,2.331-.7,1.647,1.647,0,0,0-.718-2.259,1.754,1.754,0,0,0-2.331.7A1.646,1.646,0,0,0,101.583,136.9Z" transform="translate(1.817 -77.486)" fill="#fff"/>
                  <path id="Path_92" data-name="Path 92" d="M104.952,138.861a1.893,1.893,0,0,0,2.518-.751,1.777,1.777,0,0,0-.775-2.44,1.893,1.893,0,0,0-2.518.751A1.777,1.777,0,0,0,104.952,138.861Z" transform="translate(3.935 -76.478)" fill="#fff"/>
                  <path id="Path_93" data-name="Path 93" d="M108.319,140.84a2.051,2.051,0,0,0,2.73-.815,1.927,1.927,0,0,0-.839-2.646,2.053,2.053,0,0,0-2.732.815A1.929,1.929,0,0,0,108.319,140.84Z" transform="translate(6.045 -75.476)" fill="#fff"/>
                  <path id="Path_94" data-name="Path 94" d="M111.685,142.84a2.229,2.229,0,0,0,2.965-.885,2.093,2.093,0,0,0-.913-2.873,2.228,2.228,0,0,0-2.965.885A2.093,2.093,0,0,0,111.685,142.84Z" transform="translate(8.149 -74.48)" fill="#fff"/>
                  <path id="Path_95" data-name="Path 95" d="M115.053,144.8a2.371,2.371,0,0,0,3.154-.942,2.226,2.226,0,0,0-.971-3.056,2.372,2.372,0,0,0-3.154.941A2.229,2.229,0,0,0,115.053,144.8Z" transform="translate(10.267 -73.472)" fill="#fff"/>
                  <path id="Path_96" data-name="Path 96" d="M118.432,146.587a2.374,2.374,0,0,0,3.156-.941,2.226,2.226,0,0,0-.973-3.056,2.371,2.371,0,0,0-3.154.941A2.227,2.227,0,0,0,118.432,146.587Z" transform="translate(12.439 -72.414)" fill="#fff"/>
                  <path id="Path_97" data-name="Path 97" d="M59.2,119.563a2.371,2.371,0,0,0,3.154-.942,2.227,2.227,0,0,0-.971-3.056,2.372,2.372,0,0,0-3.154.941A2.227,2.227,0,0,0,59.2,119.563Z" transform="translate(-25.637 -88.407)" fill="#fff"/>
                  <path id="Path_98" data-name="Path 98" d="M62.577,121.351a2.372,2.372,0,0,0,3.154-.941,2.226,2.226,0,0,0-.971-3.056,2.371,2.371,0,0,0-3.154.941A2.227,2.227,0,0,0,62.577,121.351Z" transform="translate(-23.465 -87.348)" fill="#fff"/>
                  <path id="Path_99" data-name="Path 99" d="M65.956,123.139a2.37,2.37,0,0,0,3.154-.941,2.226,2.226,0,0,0-.971-3.056,2.372,2.372,0,0,0-3.154.941A2.227,2.227,0,0,0,65.956,123.139Z" transform="translate(-21.293 -86.29)" fill="#fff"/>
                  <path id="Path_100" data-name="Path 100" d="M69.348,124.738a2.212,2.212,0,0,0,2.942-.879,2.075,2.075,0,0,0-.905-2.851,2.212,2.212,0,0,0-2.942.877A2.078,2.078,0,0,0,69.348,124.738Z" transform="translate(-19.059 -85.175)" fill="#fff"/>
                  <path id="Path_101" data-name="Path 101" d="M72.743,126.272a2,2,0,0,0,2.66-.794,1.877,1.877,0,0,0-.818-2.577,2,2,0,0,0-2.661.793A1.88,1.88,0,0,0,72.743,126.272Z" transform="translate(-16.805 -84.042)" fill="#fff"/>
                  <path id="Path_102" data-name="Path 102" d="M76.136,127.827a1.806,1.806,0,0,0,2.4-.716,1.7,1.7,0,0,0-.739-2.327,1.807,1.807,0,0,0-2.4.716A1.7,1.7,0,0,0,76.136,127.827Z" transform="translate(-14.558 -82.914)" fill="#fff"/>
                  <path id="Path_103" data-name="Path 103" d="M79.529,129.4a1.63,1.63,0,0,0,2.167-.646,1.53,1.53,0,0,0-.667-2.1,1.629,1.629,0,0,0-2.167.645A1.53,1.53,0,0,0,79.529,129.4Z" transform="translate(-12.318 -81.793)" fill="#fff"/>
                  <path id="Path_104" data-name="Path 104" d="M82.919,131.022a1.488,1.488,0,0,0,1.978-.589,1.4,1.4,0,0,0-.609-1.916,1.485,1.485,0,0,0-1.976.591A1.394,1.394,0,0,0,82.919,131.022Z" transform="translate(-10.091 -80.684)" fill="#fff"/>
                  <path id="Path_105" data-name="Path 105" d="M86.306,132.683a1.38,1.38,0,0,0,1.837-.548,1.3,1.3,0,0,0-.565-1.778,1.38,1.38,0,0,0-1.837.548A1.294,1.294,0,0,0,86.306,132.683Z" transform="translate(-7.878 -79.588)" fill="#fff"/>
                  <path id="Path_106" data-name="Path 106" d="M89.688,134.429a1.345,1.345,0,0,0,1.789-.533,1.264,1.264,0,0,0-.55-1.734,1.346,1.346,0,0,0-1.789.533A1.263,1.263,0,0,0,89.688,134.429Z" transform="translate(-5.692 -78.517)" fill="#fff"/>
                  <path id="Path_107" data-name="Path 107" d="M93.067,136.219a1.344,1.344,0,0,0,1.789-.535,1.262,1.262,0,0,0-.55-1.733,1.345,1.345,0,0,0-1.789.535A1.264,1.264,0,0,0,93.067,136.219Z" transform="translate(-3.52 -77.459)" fill="#fff"/>
                  <path id="Path_108" data-name="Path 108" d="M96.441,138.092a1.415,1.415,0,0,0,1.883-.562,1.331,1.331,0,0,0-.58-1.826,1.415,1.415,0,0,0-1.883.562A1.331,1.331,0,0,0,96.441,138.092Z" transform="translate(-1.375 -76.426)" fill="#fff"/>
                  <path id="Path_109" data-name="Path 109" d="M99.811,140.027a1.539,1.539,0,0,0,2.049-.61,1.447,1.447,0,0,0-.631-1.985,1.542,1.542,0,0,0-2.049.611A1.445,1.445,0,0,0,99.811,140.027Z" transform="translate(0.749 -75.411)" fill="#fff"/>
                  <path id="Path_110" data-name="Path 110" d="M103.179,142.007a1.7,1.7,0,0,0,2.259-.673,1.6,1.6,0,0,0-.695-2.19,1.7,1.7,0,0,0-2.26.675A1.594,1.594,0,0,0,103.179,142.007Z" transform="translate(2.86 -74.409)" fill="#fff"/>
                  <path id="Path_111" data-name="Path 111" d="M106.542,144.029a1.9,1.9,0,0,0,2.52-.751,1.779,1.779,0,0,0-.775-2.44,1.894,1.894,0,0,0-2.52.75A1.78,1.78,0,0,0,106.542,144.029Z" transform="translate(4.957 -73.42)" fill="#fff"/>
                  <path id="Path_112" data-name="Path 112" d="M109.907,146.05a2.086,2.086,0,0,0,2.778-.828,1.961,1.961,0,0,0-.856-2.692,2.09,2.09,0,0,0-2.778.828A1.961,1.961,0,0,0,109.907,146.05Z" transform="translate(7.054 -72.43)" fill="#fff"/>
                  <path id="Path_113" data-name="Path 113" d="M113.271,148.092a2.3,2.3,0,0,0,3.059-.912,2.159,2.159,0,0,0-.941-2.966,2.3,2.3,0,0,0-3.061.912A2.161,2.161,0,0,0,113.271,148.092Z" transform="translate(9.144 -71.447)" fill="#fff"/>
                  <path id="Path_114" data-name="Path 114" d="M116.644,149.966a2.371,2.371,0,0,0,3.154-.941,2.227,2.227,0,0,0-.971-3.056,2.371,2.371,0,0,0-3.154.941A2.226,2.226,0,0,0,116.644,149.966Z" transform="translate(11.289 -70.414)" fill="#fff"/>
                  <path id="Path_115" data-name="Path 115" d="M57.409,122.942A2.374,2.374,0,0,0,60.565,122a2.229,2.229,0,0,0-.971-3.058,2.373,2.373,0,0,0-3.156.942A2.227,2.227,0,0,0,57.409,122.942Z" transform="translate(-26.787 -86.407)" fill="#fff"/>
                  <path id="Path_116" data-name="Path 116" d="M60.789,124.73a2.371,2.371,0,0,0,3.154-.941,2.227,2.227,0,0,0-.971-3.056,2.372,2.372,0,0,0-3.154.941A2.226,2.226,0,0,0,60.789,124.73Z" transform="translate(-24.614 -85.348)" fill="#fff"/>
                  <path id="Path_117" data-name="Path 117" d="M64.172,126.456a2.319,2.319,0,0,0,3.084-.92,2.178,2.178,0,0,0-.95-2.989,2.319,2.319,0,0,0-3.084.92A2.178,2.178,0,0,0,64.172,126.456Z" transform="translate(-22.422 -84.271)" fill="#fff"/>
                  <path id="Path_118" data-name="Path 118" d="M67.568,127.968a2.088,2.088,0,0,0,2.778-.828,1.962,1.962,0,0,0-.854-2.692,2.089,2.089,0,0,0-2.778.828A1.962,1.962,0,0,0,67.568,127.968Z" transform="translate(-20.161 -83.131)" fill="#fff"/>
                  <path id="Path_119" data-name="Path 119" d="M70.964,129.5a1.877,1.877,0,0,0,2.5-.743,1.762,1.762,0,0,0-.767-2.418,1.878,1.878,0,0,0-2.5.743A1.763,1.763,0,0,0,70.964,129.5Z" transform="translate(-17.907 -81.998)" fill="#fff"/>
                  <path id="Path_120" data-name="Path 120" d="M74.359,131.036a1.664,1.664,0,0,0,2.213-.659,1.564,1.564,0,0,0-.682-2.146,1.666,1.666,0,0,0-2.213.661A1.562,1.562,0,0,0,74.359,131.036Z" transform="translate(-15.653 -80.864)" fill="#fff"/>
                  <path id="Path_121" data-name="Path 121" d="M77.754,132.592a1.469,1.469,0,0,0,1.953-.584,1.38,1.38,0,0,0-.6-1.893,1.472,1.472,0,0,0-1.955.583A1.381,1.381,0,0,0,77.754,132.592Z" transform="translate(-13.406 -79.736)" fill="#fff"/>
                  <path id="Path_122" data-name="Path 122" d="M81.145,134.168a1.291,1.291,0,0,0,1.718-.513,1.213,1.213,0,0,0-.529-1.665,1.292,1.292,0,0,0-1.718.513A1.213,1.213,0,0,0,81.145,134.168Z" transform="translate(-11.166 -78.616)" fill="#fff"/>
                  <path id="Path_123" data-name="Path 123" d="M84.535,135.787a1.15,1.15,0,0,0,1.531-.457,1.08,1.08,0,0,0-.471-1.482,1.151,1.151,0,0,0-1.531.455A1.082,1.082,0,0,0,84.535,135.787Z" transform="translate(-8.939 -77.507)" fill="#fff"/>
                  <path id="Path_124" data-name="Path 124" d="M87.918,137.512a1.1,1.1,0,0,0,1.46-.435,1.031,1.031,0,0,0-.45-1.415,1.1,1.1,0,0,0-1.459.436A1.029,1.029,0,0,0,87.918,137.512Z" transform="translate(-6.747 -76.43)" fill="#fff"/>
                  <path id="Path_125" data-name="Path 125" d="M91.3,139.3a1.1,1.1,0,0,0,1.46-.436,1.029,1.029,0,0,0-.45-1.413,1.1,1.1,0,0,0-1.459.435A1.031,1.031,0,0,0,91.3,139.3Z" transform="translate(-4.575 -75.371)" fill="#fff"/>
                  <path id="Path_126" data-name="Path 126" d="M94.669,141.216a1.2,1.2,0,0,0,1.6-.478,1.129,1.129,0,0,0-.493-1.55,1.2,1.2,0,0,0-1.6.478A1.128,1.128,0,0,0,94.669,141.216Z" transform="translate(-2.443 -74.35)" fill="#fff"/>
                  <path id="Path_127" data-name="Path 127" d="M98.035,143.2a1.363,1.363,0,0,0,1.814-.541,1.28,1.28,0,0,0-.559-1.756,1.362,1.362,0,0,0-1.812.541A1.279,1.279,0,0,0,98.035,143.2Z" transform="translate(-0.332 -73.349)" fill="#fff"/>
                  <path id="Path_128" data-name="Path 128" d="M101.4,145.2a1.536,1.536,0,0,0,2.047-.611,1.443,1.443,0,0,0-.629-1.983,1.539,1.539,0,0,0-2.049.611A1.445,1.445,0,0,0,101.4,145.2Z" transform="translate(1.772 -72.353)" fill="#fff"/>
                  <path id="Path_129" data-name="Path 129" d="M104.765,147.238a1.75,1.75,0,0,0,2.33-.7,1.644,1.644,0,0,0-.716-2.257,1.752,1.752,0,0,0-2.331.7A1.644,1.644,0,0,0,104.765,147.238Z" transform="translate(3.862 -71.37)" fill="#fff"/>
                  <path id="Path_130" data-name="Path 130" d="M108.128,149.281a1.964,1.964,0,0,0,2.614-.78,1.843,1.843,0,0,0-.8-2.531,1.966,1.966,0,0,0-2.614.778A1.846,1.846,0,0,0,108.128,149.281Z" transform="translate(5.952 -70.387)" fill="#fff"/>
                  <path id="Path_131" data-name="Path 131" d="M111.49,151.345a2.194,2.194,0,0,0,2.919-.871,2.062,2.062,0,0,0-.9-2.829,2.2,2.2,0,0,0-2.919.871A2.06,2.06,0,0,0,111.49,151.345Z" transform="translate(8.036 -69.41)" fill="#fff"/>
                  <path id="Path_132" data-name="Path 132" d="M114.855,153.345a2.372,2.372,0,0,0,3.156-.941,2.227,2.227,0,0,0-.971-3.056,2.374,2.374,0,0,0-3.156.941A2.227,2.227,0,0,0,114.855,153.345Z" transform="translate(10.14 -68.414)" fill="#fff"/>
                  <path id="Path_133" data-name="Path 133" d="M55.621,126.321a2.372,2.372,0,0,0,3.154-.941,2.226,2.226,0,0,0-.971-3.056,2.371,2.371,0,0,0-3.154.941A2.227,2.227,0,0,0,55.621,126.321Z" transform="translate(-27.936 -84.407)" fill="#fff"/>
                  <path id="Path_134" data-name="Path 134" d="M59,128.109a2.37,2.37,0,0,0,3.154-.941,2.226,2.226,0,0,0-.971-3.056,2.372,2.372,0,0,0-3.154.941A2.227,2.227,0,0,0,59,128.109Z" transform="translate(-25.764 -83.349)" fill="#fff"/>
                  <path id="Path_135" data-name="Path 135" d="M62.389,129.749a2.248,2.248,0,0,0,2.99-.891,2.111,2.111,0,0,0-.92-2.9,2.248,2.248,0,0,0-2.99.891A2.111,2.111,0,0,0,62.389,129.749Z" transform="translate(-23.544 -82.247)" fill="#fff"/>
                  <path id="Path_136" data-name="Path 136" d="M65.787,131.242a2,2,0,0,0,2.66-.794,1.879,1.879,0,0,0-.818-2.577,2,2,0,0,0-2.661.793A1.88,1.88,0,0,0,65.787,131.242Z" transform="translate(-21.277 -81.1)" fill="#fff"/>
                  <path id="Path_137" data-name="Path 137" d="M69.183,132.754a1.769,1.769,0,0,0,2.354-.7,1.661,1.661,0,0,0-.724-2.281,1.771,1.771,0,0,0-2.354.7A1.662,1.662,0,0,0,69.183,132.754Z" transform="translate(-19.016 -79.96)" fill="#fff"/>
                  <path id="Path_138" data-name="Path 138" d="M72.58,134.268a1.542,1.542,0,0,0,2.049-.611A1.448,1.448,0,0,0,74,131.671a1.542,1.542,0,0,0-2.049.611A1.447,1.447,0,0,0,72.58,134.268Z" transform="translate(-16.755 -78.82)" fill="#fff"/>
                  <path id="Path_139" data-name="Path 139" d="M75.977,135.781a1.31,1.31,0,0,0,1.741-.521,1.228,1.228,0,0,0-.536-1.687,1.31,1.31,0,0,0-1.743.519A1.232,1.232,0,0,0,75.977,135.781Z" transform="translate(-14.494 -77.68)" fill="#fff"/>
                  <path id="Path_140" data-name="Path 140" d="M79.369,137.336a1.116,1.116,0,0,0,1.483-.443,1.047,1.047,0,0,0-.457-1.437,1.117,1.117,0,0,0-1.483.443A1.048,1.048,0,0,0,79.369,137.336Z" transform="translate(-12.247 -76.553)" fill="#fff"/>
                  <path id="Path_141" data-name="Path 141" d="M82.761,138.933a.956.956,0,0,0,1.271-.379.9.9,0,0,0-.391-1.232.956.956,0,0,0-1.272.379A.9.9,0,0,0,82.761,138.933Z" transform="translate(-10.014 -75.438)" fill="#fff"/>
                  <path id="Path_142" data-name="Path 142" d="M86.148,140.594a.849.849,0,0,0,1.13-.337.8.8,0,0,0-.348-1.094.85.85,0,0,0-1.13.336A.8.8,0,0,0,86.148,140.594Z" transform="translate(-7.801 -74.342)" fill="#fff"/>
                  <path id="Path_143" data-name="Path 143" d="M89.524,142.425a.885.885,0,0,0,1.178-.35.832.832,0,0,0-.363-1.141.884.884,0,0,0-1.176.352A.831.831,0,0,0,89.524,142.425Z" transform="translate(-5.642 -73.296)" fill="#fff"/>
                  <path id="Path_144" data-name="Path 144" d="M92.9,144.362a1.009,1.009,0,0,0,1.342-.4.948.948,0,0,0-.414-1.3,1.01,1.01,0,0,0-1.342.4A.946.946,0,0,0,92.9,144.362Z" transform="translate(-3.518 -72.282)" fill="#fff"/>
                  <path id="Path_145" data-name="Path 145" d="M96.258,146.384a1.2,1.2,0,0,0,1.6-.478,1.132,1.132,0,0,0-.493-1.552,1.2,1.2,0,0,0-1.6.478A1.131,1.131,0,0,0,96.258,146.384Z" transform="translate(-1.421 -71.292)" fill="#fff"/>
                  <path id="Path_146" data-name="Path 146" d="M99.622,148.427a1.418,1.418,0,0,0,1.884-.562,1.331,1.331,0,0,0-.58-1.826,1.417,1.417,0,0,0-1.884.562A1.331,1.331,0,0,0,99.622,148.427Z" transform="translate(0.67 -70.31)" fill="#fff"/>
                  <path id="Path_147" data-name="Path 147" d="M102.984,150.491a1.644,1.644,0,0,0,2.188-.653,1.544,1.544,0,0,0-.674-2.122,1.644,1.644,0,0,0-2.188.653A1.546,1.546,0,0,0,102.984,150.491Z" transform="translate(2.753 -69.333)" fill="#fff"/>
                  <path id="Path_148" data-name="Path 148" d="M106.347,152.554a1.874,1.874,0,0,0,2.494-.743,1.76,1.76,0,0,0-.767-2.418,1.875,1.875,0,0,0-2.5.743A1.761,1.761,0,0,0,106.347,152.554Z" transform="translate(4.837 -68.356)" fill="#fff"/>
                  <path id="Path_149" data-name="Path 149" d="M109.708,154.619a2.107,2.107,0,0,0,2.8-.836,1.979,1.979,0,0,0-.861-2.716,2.107,2.107,0,0,0-2.8.836A1.979,1.979,0,0,0,109.708,154.619Z" transform="translate(6.92 -67.379)" fill="#fff"/>
                  <path id="Path_150" data-name="Path 150" d="M113.069,156.7a2.353,2.353,0,0,0,3.131-.934,2.208,2.208,0,0,0-.964-3.032,2.354,2.354,0,0,0-3.131.933A2.211,2.211,0,0,0,113.069,156.7Z" transform="translate(8.997 -66.408)" fill="#fff"/>
                  <path id="Path_151" data-name="Path 151" d="M53.832,129.7a2.372,2.372,0,0,0,3.156-.941,2.227,2.227,0,0,0-.971-3.056,2.373,2.373,0,0,0-3.156.941A2.227,2.227,0,0,0,53.832,129.7Z" transform="translate(-29.086 -82.407)" fill="#fff"/>
                  <path id="Path_152" data-name="Path 152" d="M57.212,131.489a2.372,2.372,0,0,0,3.154-.941,2.229,2.229,0,0,0-.971-3.058,2.372,2.372,0,0,0-3.154.941A2.227,2.227,0,0,0,57.212,131.489Z" transform="translate(-26.914 -81.349)" fill="#fff"/>
                  <path id="Path_153" data-name="Path 153" d="M60.6,133.087a2.215,2.215,0,0,0,2.944-.879,2.077,2.077,0,0,0-.907-2.851,2.214,2.214,0,0,0-2.942.877A2.08,2.08,0,0,0,60.6,133.087Z" transform="translate(-24.68 -80.234)" fill="#fff"/>
                  <path id="Path_154" data-name="Path 154" d="M64,134.578a1.965,1.965,0,0,0,2.614-.78,1.845,1.845,0,0,0-.8-2.531,1.966,1.966,0,0,0-2.614.778A1.846,1.846,0,0,0,64,134.578Z" transform="translate(-22.413 -79.088)" fill="#fff"/>
                  <path id="Path_155" data-name="Path 155" d="M67.4,136.092A1.733,1.733,0,0,0,69.7,135.4a1.627,1.627,0,0,0-.71-2.235,1.735,1.735,0,0,0-2.308.688A1.631,1.631,0,0,0,67.4,136.092Z" transform="translate(-20.152 -77.948)" fill="#fff"/>
                  <path id="Path_156" data-name="Path 156" d="M70.8,137.562a1.471,1.471,0,0,0,1.955-.584,1.38,1.38,0,0,0-.6-1.893,1.472,1.472,0,0,0-1.955.583A1.382,1.382,0,0,0,70.8,137.562Z" transform="translate(-17.878 -76.795)" fill="#fff"/>
                  <path id="Path_157" data-name="Path 157" d="M74.193,139.075a1.238,1.238,0,0,0,1.648-.492,1.162,1.162,0,0,0-.508-1.6,1.239,1.239,0,0,0-1.648.492A1.163,1.163,0,0,0,74.193,139.075Z" transform="translate(-15.617 -75.656)" fill="#fff"/>
                  <path id="Path_158" data-name="Path 158" d="M77.59,140.588a1.008,1.008,0,0,0,1.341-.4.944.944,0,0,0-.412-1.3,1.008,1.008,0,0,0-1.342.4A.948.948,0,0,0,77.59,140.588Z" transform="translate(-13.356 -74.516)" fill="#fff"/>
                  <path id="Path_159" data-name="Path 159" d="M80.985,142.1a.779.779,0,0,0,1.037-.309.731.731,0,0,0-.319-1,.779.779,0,0,0-1.037.309A.732.732,0,0,0,80.985,142.1Z" transform="translate(-11.095 -73.376)" fill="#fff"/>
                  <path id="Path_160" data-name="Path 160" d="M84.377,143.7a.622.622,0,0,0,.825-.247.581.581,0,0,0-.255-.8.618.618,0,0,0-.823.245A.582.582,0,0,0,84.377,143.7Z" transform="translate(-8.862 -72.261)" fill="#fff"/>
                  <path id="Path_161" data-name="Path 161" d="M87.753,145.53a.657.657,0,0,0,.872-.261.615.615,0,0,0-.269-.844.656.656,0,0,0-.871.259A.617.617,0,0,0,87.753,145.53Z" transform="translate(-6.703 -71.215)" fill="#fff"/>
                  <path id="Path_162" data-name="Path 162" d="M91.115,147.593a.886.886,0,0,0,1.178-.352.83.83,0,0,0-.363-1.14.884.884,0,0,0-1.176.35A.831.831,0,0,0,91.115,147.593Z" transform="translate(-4.62 -70.238)" fill="#fff"/>
                  <path id="Path_163" data-name="Path 163" d="M94.479,149.636a1.1,1.1,0,0,0,1.459-.436,1.03,1.03,0,0,0-.448-1.413,1.1,1.1,0,0,0-1.46.435A1.031,1.031,0,0,0,94.479,149.636Z" transform="translate(-2.53 -69.255)" fill="#fff"/>
                  <path id="Path_164" data-name="Path 164" d="M97.84,151.72a1.341,1.341,0,0,0,1.787-.533,1.261,1.261,0,0,0-.55-1.733,1.346,1.346,0,0,0-1.789.533A1.262,1.262,0,0,0,97.84,151.72Z" transform="translate(-0.453 -68.284)" fill="#fff"/>
                  <path id="Path_165" data-name="Path 165" d="M101.2,153.785a1.577,1.577,0,0,0,2.1-.626,1.479,1.479,0,0,0-.646-2.03,1.574,1.574,0,0,0-2.095.624A1.48,1.48,0,0,0,101.2,153.785Z" transform="translate(1.631 -67.308)" fill="#fff"/>
                  <path id="Path_166" data-name="Path 166" d="M104.562,155.869a1.823,1.823,0,0,0,2.425-.723,1.712,1.712,0,0,0-.746-2.349,1.823,1.823,0,0,0-2.425.723A1.712,1.712,0,0,0,104.562,155.869Z" transform="translate(3.708 -66.337)" fill="#fff"/>
                  <path id="Path_167" data-name="Path 167" d="M107.923,157.955a2.071,2.071,0,0,0,2.753-.821,1.944,1.944,0,0,0-.848-2.669,2.071,2.071,0,0,0-2.753.821A1.943,1.943,0,0,0,107.923,157.955Z" transform="translate(5.784 -65.367)" fill="#fff"/>
                  <path id="Path_168" data-name="Path 168" d="M111.282,160.041a2.321,2.321,0,0,0,3.085-.92,2.176,2.176,0,0,0-.95-2.988,2.317,2.317,0,0,0-3.084.918A2.179,2.179,0,0,0,111.282,160.041Z" transform="translate(7.861 -64.396)" fill="#fff"/>
                  <path id="Path_169" data-name="Path 169" d="M52.044,133.079a2.37,2.37,0,0,0,3.154-.941,2.226,2.226,0,0,0-.971-3.056,2.372,2.372,0,0,0-3.154.941A2.227,2.227,0,0,0,52.044,133.079Z" transform="translate(-30.236 -80.408)" fill="#fff"/>
                  <path id="Path_170" data-name="Path 170" d="M55.423,134.868a2.374,2.374,0,0,0,3.156-.941,2.226,2.226,0,0,0-.973-3.056,2.371,2.371,0,0,0-3.154.941A2.227,2.227,0,0,0,55.423,134.868Z" transform="translate(-28.063 -79.349)" fill="#fff"/>
                  <path id="Path_171" data-name="Path 171" d="M58.816,136.443a2.194,2.194,0,0,0,2.919-.871,2.06,2.06,0,0,0-.9-2.827,2.194,2.194,0,0,0-2.919.871A2.058,2.058,0,0,0,58.816,136.443Z" transform="translate(-25.823 -78.228)" fill="#fff"/>
                  <path id="Path_172" data-name="Path 172" d="M62.215,137.937a1.947,1.947,0,0,0,2.589-.772,1.83,1.83,0,0,0-.8-2.51,1.949,1.949,0,0,0-2.591.772A1.829,1.829,0,0,0,62.215,137.937Z" transform="translate(-23.556 -77.082)" fill="#fff"/>
                  <path id="Path_173" data-name="Path 173" d="M65.611,139.428a1.7,1.7,0,0,0,2.26-.673,1.6,1.6,0,0,0-.695-2.19,1.7,1.7,0,0,0-2.261.673A1.6,1.6,0,0,0,65.611,139.428Z" transform="translate(-21.288 -75.936)" fill="#fff"/>
                  <path id="Path_174" data-name="Path 174" d="M69.008,140.941a1.47,1.47,0,0,0,1.953-.583,1.379,1.379,0,0,0-.6-1.894,1.47,1.47,0,0,0-1.953.583A1.379,1.379,0,0,0,69.008,140.941Z" transform="translate(-19.027 -74.796)" fill="#fff"/>
                  <path id="Path_175" data-name="Path 175" d="M72.407,142.433a1.22,1.22,0,0,0,1.623-.484,1.147,1.147,0,0,0-.5-1.574,1.222,1.222,0,0,0-1.625.484A1.146,1.146,0,0,0,72.407,142.433Z" transform="translate(-16.76 -73.649)" fill="#fff"/>
                  <path id="Path_176" data-name="Path 176" d="M75.8,143.924a.973.973,0,0,0,1.295-.385.916.916,0,0,0-.4-1.256.976.976,0,0,0-1.3.387A.914.914,0,0,0,75.8,143.924Z" transform="translate(-14.492 -72.503)" fill="#fff"/>
                  <path id="Path_177" data-name="Path 177" d="M79.2,145.415a.723.723,0,0,0,.964-.286.68.68,0,0,0-.3-.936.725.725,0,0,0-.964.288A.681.681,0,0,0,79.2,145.415Z" transform="translate(-12.224 -71.357)" fill="#fff"/>
                  <path id="Path_178" data-name="Path 178" d="M82.6,146.951a.512.512,0,0,0,.682-.205.482.482,0,0,0-.21-.661.513.513,0,0,0-.682.2A.481.481,0,0,0,82.6,146.951Z" transform="translate(-9.971 -70.223)" fill="#fff"/>
                  <path id="Path_179" data-name="Path 179" d="M85.969,148.845a.6.6,0,0,0,.8-.239.565.565,0,0,0-.246-.775.6.6,0,0,0-.8.239A.565.565,0,0,0,85.969,148.845Z" transform="translate(-7.832 -69.196)" fill="#fff"/>
                  <path id="Path_180" data-name="Path 180" d="M89.332,150.909a.831.831,0,0,0,1.106-.33.781.781,0,0,0-.34-1.073.831.831,0,0,0-1.107.331A.781.781,0,0,0,89.332,150.909Z" transform="translate(-5.749 -68.22)" fill="#fff"/>
                  <path id="Path_181" data-name="Path 181" d="M92.691,152.994a1.079,1.079,0,0,0,1.436-.43,1.014,1.014,0,0,0-.442-1.391,1.08,1.08,0,0,0-1.436.43A1.015,1.015,0,0,0,92.691,152.994Z" transform="translate(-3.672 -67.249)" fill="#fff"/>
                  <path id="Path_182" data-name="Path 182" d="M96.052,155.078a1.326,1.326,0,0,0,1.766-.527,1.246,1.246,0,0,0-.544-1.71,1.326,1.326,0,0,0-1.766.527A1.246,1.246,0,0,0,96.052,155.078Z" transform="translate(-1.595 -66.278)" fill="#fff"/>
                  <path id="Path_183" data-name="Path 183" d="M99.413,157.164a1.574,1.574,0,0,0,2.095-.626,1.479,1.479,0,0,0-.644-2.03,1.577,1.577,0,0,0-2.1.624A1.48,1.48,0,0,0,99.413,157.164Z" transform="translate(0.481 -65.308)" fill="#fff"/>
                  <path id="Path_184" data-name="Path 184" d="M102.774,159.25a1.824,1.824,0,0,0,2.425-.724,1.712,1.712,0,0,0-.747-2.349,1.823,1.823,0,0,0-2.425.724A1.711,1.711,0,0,0,102.774,159.25Z" transform="translate(2.558 -64.337)" fill="#fff"/>
                  <path id="Path_185" data-name="Path 185" d="M106.133,161.334a2.07,2.07,0,0,0,2.755-.821,1.945,1.945,0,0,0-.848-2.668,2.07,2.07,0,0,0-2.755.821A1.945,1.945,0,0,0,106.133,161.334Z" transform="translate(4.635 -63.367)" fill="#fff"/>
                  <path id="Path_186" data-name="Path 186" d="M109.5,163.4a2.3,2.3,0,0,0,3.061-.912,2.161,2.161,0,0,0-.943-2.966,2.3,2.3,0,0,0-3.059.914A2.159,2.159,0,0,0,109.5,163.4Z" transform="translate(6.718 -62.39)" fill="#fff"/>
                  <path id="Path_187" data-name="Path 187" d="M50.256,136.459a2.371,2.371,0,0,0,3.154-.942,2.227,2.227,0,0,0-.971-3.056,2.372,2.372,0,0,0-3.154.941A2.227,2.227,0,0,0,50.256,136.459Z" transform="translate(-31.385 -78.408)" fill="#fff"/>
                  <path id="Path_188" data-name="Path 188" d="M53.635,138.247a2.372,2.372,0,0,0,3.154-.941,2.227,2.227,0,0,0-.971-3.056,2.371,2.371,0,0,0-3.154.941A2.226,2.226,0,0,0,53.635,138.247Z" transform="translate(-29.213 -77.349)" fill="#fff"/>
                  <path id="Path_189" data-name="Path 189" d="M57.025,139.865a2.227,2.227,0,0,0,2.965-.883,2.093,2.093,0,0,0-.913-2.875,2.229,2.229,0,0,0-2.965.885A2.093,2.093,0,0,0,57.025,139.865Z" transform="translate(-26.986 -76.241)" fill="#fff"/>
                  <path id="Path_190" data-name="Path 190" d="M60.422,141.358a1.984,1.984,0,0,0,2.637-.786,1.86,1.86,0,0,0-.812-2.555,1.982,1.982,0,0,0-2.637.786A1.862,1.862,0,0,0,60.422,141.358Z" transform="translate(-24.719 -75.095)" fill="#fff"/>
                  <path id="Path_191" data-name="Path 191" d="M63.821,142.85a1.734,1.734,0,0,0,2.306-.688,1.629,1.629,0,0,0-.71-2.237,1.734,1.734,0,0,0-2.306.689A1.627,1.627,0,0,0,63.821,142.85Z" transform="translate(-22.451 -73.949)" fill="#fff"/>
                  <path id="Path_192" data-name="Path 192" d="M67.216,144.384a1.522,1.522,0,0,0,2.024-.6,1.43,1.43,0,0,0-.623-1.963,1.525,1.525,0,0,0-2.026.6A1.43,1.43,0,0,0,67.216,144.384Z" transform="translate(-20.197 -72.815)" fill="#fff"/>
                  <path id="Path_193" data-name="Path 193" d="M70.613,145.875a1.274,1.274,0,0,0,1.7-.5,1.2,1.2,0,0,0-.522-1.643,1.274,1.274,0,0,0-1.694.5A1.2,1.2,0,0,0,70.613,145.875Z" transform="translate(-17.93 -71.668)" fill="#fff"/>
                  <path id="Path_194" data-name="Path 194" d="M74.01,147.388a1.044,1.044,0,0,0,1.388-.414.98.98,0,0,0-.427-1.347,1.044,1.044,0,0,0-1.388.414A.981.981,0,0,0,74.01,147.388Z" transform="translate(-15.669 -70.528)" fill="#fff"/>
                  <path id="Path_195" data-name="Path 195" d="M77.4,148.966a.868.868,0,0,0,1.153-.345A.815.815,0,0,0,78.2,147.5a.87.87,0,0,0-1.155.344A.816.816,0,0,0,77.4,148.966Z" transform="translate(-13.429 -69.407)" fill="#fff"/>
                  <path id="Path_196" data-name="Path 196" d="M80.793,150.584a.725.725,0,0,0,.964-.288.681.681,0,0,0-.3-.934.722.722,0,0,0-.964.288A.678.678,0,0,0,80.793,150.584Z" transform="translate(-11.202 -68.299)" fill="#fff"/>
                  <path id="Path_197" data-name="Path 197" d="M84.169,152.414a.761.761,0,0,0,1.012-.3.715.715,0,0,0-.312-.982.763.763,0,0,0-1.012.3A.713.713,0,0,0,84.169,152.414Z" transform="translate(-9.044 -67.253)" fill="#fff"/>
                  <path id="Path_198" data-name="Path 198" d="M87.534,154.414a.937.937,0,0,0,1.249-.371.882.882,0,0,0-.384-1.21.938.938,0,0,0-1.247.372A.88.88,0,0,0,87.534,154.414Z" transform="translate(-6.939 -66.257)" fill="#fff"/>
                  <path id="Path_199" data-name="Path 199" d="M90.9,156.457A1.15,1.15,0,0,0,92.427,156a1.08,1.08,0,0,0-.47-1.484,1.151,1.151,0,0,0-1.531.457A1.08,1.08,0,0,0,90.9,156.457Z" transform="translate(-4.849 -65.274)" fill="#fff"/>
                  <path id="Path_200" data-name="Path 200" d="M94.26,158.522a1.38,1.38,0,0,0,1.835-.549,1.294,1.294,0,0,0-.565-1.778,1.378,1.378,0,0,0-1.835.548A1.3,1.3,0,0,0,94.26,158.522Z" transform="translate(-2.765 -64.297)" fill="#fff"/>
                  <path id="Path_201" data-name="Path 201" d="M97.623,160.586a1.609,1.609,0,0,0,2.141-.64,1.511,1.511,0,0,0-.659-2.076,1.611,1.611,0,0,0-2.142.64A1.511,1.511,0,0,0,97.623,160.586Z" transform="translate(-0.682 -63.321)" fill="#fff"/>
                  <path id="Path_202" data-name="Path 202" d="M100.982,162.67a1.857,1.857,0,0,0,2.472-.737,1.745,1.745,0,0,0-.761-2.394,1.857,1.857,0,0,0-2.472.737A1.744,1.744,0,0,0,100.982,162.67Z" transform="translate(1.395 -62.35)" fill="#fff"/>
                  <path id="Path_203" data-name="Path 203" d="M104.344,164.735a2.089,2.089,0,0,0,2.778-.829,1.961,1.961,0,0,0-.856-2.692,2.089,2.089,0,0,0-2.778.829A1.961,1.961,0,0,0,104.344,164.735Z" transform="translate(3.478 -61.373)" fill="#fff"/>
                  <path id="Path_204" data-name="Path 204" d="M107.706,166.8a2.318,2.318,0,0,0,3.083-.92,2.176,2.176,0,0,0-.95-2.988,2.318,2.318,0,0,0-3.084.92A2.176,2.176,0,0,0,107.706,166.8Z" transform="translate(5.562 -60.396)" fill="#fff"/>
                  <path id="Path_205" data-name="Path 205" d="M48.467,139.838a2.372,2.372,0,0,0,3.154-.941,2.227,2.227,0,0,0-.971-3.058,2.371,2.371,0,0,0-3.154.942A2.227,2.227,0,0,0,48.467,139.838Z" transform="translate(-32.535 -76.408)" fill="#fff"/>
                  <path id="Path_206" data-name="Path 206" d="M51.846,141.626A2.372,2.372,0,0,0,55,140.685a2.227,2.227,0,0,0-.971-3.056,2.372,2.372,0,0,0-3.156.941A2.227,2.227,0,0,0,51.846,141.626Z" transform="translate(-30.363 -75.35)" fill="#fff"/>
                  <path id="Path_207" data-name="Path 207" d="M55.232,143.309a2.285,2.285,0,0,0,3.038-.906,2.146,2.146,0,0,0-.935-2.943,2.286,2.286,0,0,0-3.038.906A2.146,2.146,0,0,0,55.232,143.309Z" transform="translate(-28.156 -74.26)" fill="#fff"/>
                  <path id="Path_208" data-name="Path 208" d="M58.63,144.8a2.036,2.036,0,0,0,2.707-.807,1.911,1.911,0,0,0-.833-2.623,2.036,2.036,0,0,0-2.707.807A1.911,1.911,0,0,0,58.63,144.8Z" transform="translate(-25.889 -73.114)" fill="#fff"/>
                  <path id="Path_209" data-name="Path 209" d="M62.026,146.334a1.823,1.823,0,0,0,2.425-.723,1.712,1.712,0,0,0-.747-2.349,1.823,1.823,0,0,0-2.425.723A1.712,1.712,0,0,0,62.026,146.334Z" transform="translate(-23.635 -71.98)" fill="#fff"/>
                  <path id="Path_210" data-name="Path 210" d="M65.42,147.869a1.61,1.61,0,0,0,2.142-.638,1.511,1.511,0,0,0-.659-2.076,1.609,1.609,0,0,0-2.142.638A1.512,1.512,0,0,0,65.42,147.869Z" transform="translate(-21.381 -70.846)" fill="#fff"/>
                  <path id="Path_211" data-name="Path 211" d="M68.817,149.382a1.383,1.383,0,0,0,1.837-.548,1.3,1.3,0,0,0-.565-1.78,1.38,1.38,0,0,0-1.837.548A1.3,1.3,0,0,0,68.817,149.382Z" transform="translate(-19.12 -69.706)" fill="#fff"/>
                  <path id="Path_212" data-name="Path 212" d="M72.21,150.958a1.2,1.2,0,0,0,1.6-.476,1.13,1.13,0,0,0-.493-1.552,1.2,1.2,0,0,0-1.6.478A1.129,1.129,0,0,0,72.21,150.958Z" transform="translate(-16.88 -68.585)" fill="#fff"/>
                  <path id="Path_213" data-name="Path 213" d="M75.6,152.557a1.044,1.044,0,0,0,1.388-.415.979.979,0,0,0-.427-1.345,1.045,1.045,0,0,0-1.39.414A.982.982,0,0,0,75.6,152.557Z" transform="translate(-14.646 -67.47)" fill="#fff"/>
                  <path id="Path_214" data-name="Path 214" d="M78.986,154.26a.976.976,0,0,0,1.295-.387.914.914,0,0,0-.4-1.254.974.974,0,0,0-1.295.385A.915.915,0,0,0,78.986,154.26Z" transform="translate(-12.447 -66.387)" fill="#fff"/>
                  <path id="Path_215" data-name="Path 215" d="M82.363,156.069a.989.989,0,0,0,1.318-.393.929.929,0,0,0-.406-1.277.989.989,0,0,0-1.318.393A.929.929,0,0,0,82.363,156.069Z" transform="translate(-10.282 -65.335)" fill="#fff"/>
                  <path id="Path_216" data-name="Path 216" d="M85.734,157.985a1.1,1.1,0,0,0,1.46-.435,1.031,1.031,0,0,0-.45-1.415,1.1,1.1,0,0,0-1.459.436A1.031,1.031,0,0,0,85.734,157.985Z" transform="translate(-8.15 -64.314)" fill="#fff"/>
                  <path id="Path_217" data-name="Path 217" d="M89.1,159.985a1.273,1.273,0,0,0,1.694-.506,1.193,1.193,0,0,0-.521-1.641,1.274,1.274,0,0,0-1.7.5A1.2,1.2,0,0,0,89.1,159.985Z" transform="translate(-6.047 -63.318)" fill="#fff"/>
                  <path id="Path_218" data-name="Path 218" d="M92.466,162.007a1.47,1.47,0,0,0,1.953-.583,1.381,1.381,0,0,0-.6-1.894,1.472,1.472,0,0,0-1.955.583A1.381,1.381,0,0,0,92.466,162.007Z" transform="translate(-3.949 -62.329)" fill="#fff"/>
                  <path id="Path_219" data-name="Path 219" d="M95.826,164.071a1.7,1.7,0,0,0,2.261-.675,1.6,1.6,0,0,0-.7-2.189,1.7,1.7,0,0,0-2.259.673A1.6,1.6,0,0,0,95.826,164.071Z" transform="translate(-1.866 -61.352)" fill="#fff"/>
                  <path id="Path_220" data-name="Path 220" d="M99.19,166.114a1.91,1.91,0,0,0,2.541-.759,1.793,1.793,0,0,0-.782-2.462,1.912,1.912,0,0,0-2.543.758A1.8,1.8,0,0,0,99.19,166.114Z" transform="translate(0.225 -60.369)" fill="#fff"/>
                  <path id="Path_221" data-name="Path 221" d="M102.552,168.177a2.141,2.141,0,0,0,2.847-.85,2.01,2.01,0,0,0-.876-2.76,2.143,2.143,0,0,0-2.849.85A2.009,2.009,0,0,0,102.552,168.177Z" transform="translate(2.308 -59.392)" fill="#fff"/>
                  <path id="Path_222" data-name="Path 222" d="M105.913,170.241a2.37,2.37,0,0,0,3.154-.941,2.226,2.226,0,0,0-.971-3.056,2.372,2.372,0,0,0-3.154.941A2.227,2.227,0,0,0,105.913,170.241Z" transform="translate(4.392 -58.415)" fill="#fff"/>
                  <path id="Path_223" data-name="Path 223" d="M46.679,143.217a2.372,2.372,0,0,0,3.154-.941,2.227,2.227,0,0,0-.971-3.056,2.37,2.37,0,0,0-3.154.941A2.226,2.226,0,0,0,46.679,143.217Z" transform="translate(-33.684 -74.408)" fill="#fff"/>
                  <path id="Path_224" data-name="Path 224" d="M50.058,145a2.371,2.371,0,0,0,3.154-.941,2.226,2.226,0,0,0-.971-3.056,2.372,2.372,0,0,0-3.154.941A2.227,2.227,0,0,0,50.058,145Z" transform="translate(-31.512 -73.35)" fill="#fff"/>
                  <path id="Path_225" data-name="Path 225" d="M53.439,146.772a2.353,2.353,0,0,0,3.131-.933,2.21,2.21,0,0,0-.964-3.034,2.354,2.354,0,0,0-3.131.934A2.21,2.21,0,0,0,53.439,146.772Z" transform="translate(-29.333 -72.285)" fill="#fff"/>
                  <path id="Path_226" data-name="Path 226" d="M56.834,148.306a2.141,2.141,0,0,0,2.849-.848,2.012,2.012,0,0,0-.877-2.76,2.141,2.141,0,0,0-2.849.848A2.01,2.01,0,0,0,56.834,148.306Z" transform="translate(-27.079 -71.152)" fill="#fff"/>
                  <path id="Path_227" data-name="Path 227" d="M60.23,149.84a1.926,1.926,0,0,0,2.564-.764,1.81,1.81,0,0,0-.789-2.486,1.927,1.927,0,0,0-2.566.766A1.808,1.808,0,0,0,60.23,149.84Z" transform="translate(-24.825 -70.018)" fill="#fff"/>
                  <path id="Path_228" data-name="Path 228" d="M63.622,151.4a1.733,1.733,0,0,0,2.306-.689,1.628,1.628,0,0,0-.71-2.235,1.734,1.734,0,0,0-2.306.688A1.63,1.63,0,0,0,63.622,151.4Z" transform="translate(-22.578 -68.891)" fill="#fff"/>
                  <path id="Path_229" data-name="Path 229" d="M67.017,152.951a1.54,1.54,0,0,0,2.049-.611,1.445,1.445,0,0,0-.631-1.983,1.539,1.539,0,0,0-2.049.61A1.447,1.447,0,0,0,67.017,152.951Z" transform="translate(-20.331 -67.763)" fill="#fff"/>
                  <path id="Path_230" data-name="Path 230" d="M70.408,154.549A1.38,1.38,0,0,0,72.245,154a1.3,1.3,0,0,0-.567-1.78,1.38,1.38,0,0,0-1.835.549A1.294,1.294,0,0,0,70.408,154.549Z" transform="translate(-18.098 -66.648)" fill="#fff"/>
                  <path id="Path_231" data-name="Path 231" d="M73.8,156.211a1.273,1.273,0,0,0,1.694-.506,1.2,1.2,0,0,0-.521-1.643,1.275,1.275,0,0,0-1.7.506A1.2,1.2,0,0,0,73.8,156.211Z" transform="translate(-15.885 -65.552)" fill="#fff"/>
                  <path id="Path_232" data-name="Path 232" d="M77.179,157.936a1.221,1.221,0,0,0,1.625-.486,1.146,1.146,0,0,0-.5-1.573,1.222,1.222,0,0,0-1.625.484A1.148,1.148,0,0,0,77.179,157.936Z" transform="translate(-13.692 -64.475)" fill="#fff"/>
                  <path id="Path_233" data-name="Path 233" d="M80.557,159.724a1.222,1.222,0,0,0,1.625-.484,1.148,1.148,0,0,0-.5-1.574,1.219,1.219,0,0,0-1.623.485A1.145,1.145,0,0,0,80.557,159.724Z" transform="translate(-11.52 -63.417)" fill="#fff"/>
                  <path id="Path_234" data-name="Path 234" d="M83.929,161.619a1.312,1.312,0,0,0,1.743-.521,1.23,1.23,0,0,0-.537-1.687,1.308,1.308,0,0,0-1.741.519A1.23,1.23,0,0,0,83.929,161.619Z" transform="translate(-9.382 -62.39)" fill="#fff"/>
                  <path id="Path_235" data-name="Path 235" d="M87.3,163.576a1.45,1.45,0,0,0,1.93-.576,1.363,1.363,0,0,0-.595-1.87,1.453,1.453,0,0,0-1.93.576A1.364,1.364,0,0,0,87.3,163.576Z" transform="translate(-7.264 -61.381)" fill="#fff"/>
                  <path id="Path_236" data-name="Path 236" d="M90.663,165.576a1.63,1.63,0,0,0,2.167-.646,1.529,1.529,0,0,0-.667-2.1,1.628,1.628,0,0,0-2.165.646A1.528,1.528,0,0,0,90.663,165.576Z" transform="translate(-5.16 -60.386)" fill="#fff"/>
                  <path id="Path_237" data-name="Path 237" d="M94.028,167.6a1.824,1.824,0,0,0,2.425-.724,1.712,1.712,0,0,0-.746-2.35,1.824,1.824,0,0,0-2.425.724A1.712,1.712,0,0,0,94.028,167.6Z" transform="translate(-3.063 -59.396)" fill="#fff"/>
                  <path id="Path_238" data-name="Path 238" d="M97.394,169.619a2.015,2.015,0,0,0,2.683-.8,1.894,1.894,0,0,0-.826-2.6,2.016,2.016,0,0,0-2.683.8A1.894,1.894,0,0,0,97.394,169.619Z" transform="translate(-0.966 -58.407)" fill="#fff"/>
                  <path id="Path_239" data-name="Path 239" d="M100.756,171.662a2.231,2.231,0,0,0,2.967-.885,2.093,2.093,0,0,0-.913-2.873,2.228,2.228,0,0,0-2.965.885A2.093,2.093,0,0,0,100.756,171.662Z" transform="translate(1.125 -57.424)" fill="#fff"/>
                  <path id="Path_240" data-name="Path 240" d="M104.125,173.62a2.371,2.371,0,0,0,3.154-.941,2.227,2.227,0,0,0-.971-3.056,2.372,2.372,0,0,0-3.154.941A2.226,2.226,0,0,0,104.125,173.62Z" transform="translate(3.242 -56.416)" fill="#fff"/>
                  <path id="Path_241" data-name="Path 241" d="M44.89,146.6a2.372,2.372,0,0,0,3.154-.941,2.224,2.224,0,0,0-.971-3.056,2.371,2.371,0,0,0-3.154.941A2.227,2.227,0,0,0,44.89,146.6Z" transform="translate(-34.834 -72.409)" fill="#fff"/>
                  <path id="Path_242" data-name="Path 242" d="M48.271,148.385a2.371,2.371,0,0,0,3.154-.942,2.227,2.227,0,0,0-.971-3.056,2.372,2.372,0,0,0-3.154.941A2.226,2.226,0,0,0,48.271,148.385Z" transform="translate(-32.662 -71.35)" fill="#fff"/>
                  <path id="Path_243" data-name="Path 243" d="M51.649,150.173a2.372,2.372,0,0,0,3.154-.941,2.227,2.227,0,0,0-.971-3.056,2.37,2.37,0,0,0-3.154.941A2.225,2.225,0,0,0,51.649,150.173Z" transform="translate(-30.49 -70.292)" fill="#fff"/>
                  <path id="Path_244" data-name="Path 244" d="M55.037,151.834a2.265,2.265,0,0,0,3.013-.9,2.127,2.127,0,0,0-.928-2.921,2.266,2.266,0,0,0-3.013.9A2.126,2.126,0,0,0,55.037,151.834Z" transform="translate(-28.277 -69.196)" fill="#fff"/>
                  <path id="Path_245" data-name="Path 245" d="M58.429,153.39a2.072,2.072,0,0,0,2.755-.823,1.945,1.945,0,0,0-.848-2.668,2.07,2.07,0,0,0-2.755.821A1.946,1.946,0,0,0,58.429,153.39Z" transform="translate(-26.03 -68.068)" fill="#fff"/>
                  <path id="Path_246" data-name="Path 246" d="M61.822,154.966a1.893,1.893,0,0,0,2.518-.751,1.777,1.777,0,0,0-.775-2.44,1.893,1.893,0,0,0-2.518.751A1.777,1.777,0,0,0,61.822,154.966Z" transform="translate(-23.789 -66.947)" fill="#fff"/>
                  <path id="Path_247" data-name="Path 247" d="M65.214,156.565a1.735,1.735,0,0,0,2.306-.689,1.627,1.627,0,0,0-.71-2.235,1.733,1.733,0,0,0-2.306.688A1.629,1.629,0,0,0,65.214,156.565Z" transform="translate(-21.556 -65.832)" fill="#fff"/>
                  <path id="Path_248" data-name="Path 248" d="M68.6,158.183a1.592,1.592,0,0,0,2.118-.632,1.5,1.5,0,0,0-.652-2.053,1.592,1.592,0,0,0-2.118.632A1.5,1.5,0,0,0,68.6,158.183Z" transform="translate(-19.329 -64.724)" fill="#fff"/>
                  <path id="Path_249" data-name="Path 249" d="M71.989,159.864a1.5,1.5,0,0,0,2-.6,1.41,1.41,0,0,0-.616-1.937,1.5,1.5,0,0,0-2,.6A1.412,1.412,0,0,0,71.989,159.864Z" transform="translate(-17.123 -63.634)" fill="#fff"/>
                  <path id="Path_250" data-name="Path 250" d="M75.372,161.591a1.453,1.453,0,0,0,1.93-.576,1.364,1.364,0,0,0-.595-1.87,1.45,1.45,0,0,0-1.93.576A1.364,1.364,0,0,0,75.372,161.591Z" transform="translate(-14.93 -62.557)" fill="#fff"/>
                  <path id="Path_251" data-name="Path 251" d="M78.75,163.4a1.47,1.47,0,0,0,1.953-.583,1.379,1.379,0,0,0-.6-1.894,1.47,1.47,0,0,0-1.953.583A1.382,1.382,0,0,0,78.75,163.4Z" transform="translate(-12.765 -61.505)" fill="#fff"/>
                  <path id="Path_252" data-name="Path 252" d="M82.123,165.274a1.541,1.541,0,0,0,2.049-.611,1.445,1.445,0,0,0-.631-1.985,1.539,1.539,0,0,0-2.047.611A1.446,1.446,0,0,0,82.123,165.274Z" transform="translate(-10.62 -60.471)" fill="#fff"/>
                  <path id="Path_253" data-name="Path 253" d="M85.5,167.188a1.644,1.644,0,0,0,2.188-.653,1.546,1.546,0,0,0-.674-2.122,1.645,1.645,0,0,0-2.188.654A1.543,1.543,0,0,0,85.5,167.188Z" transform="translate(-8.489 -59.451)" fill="#fff"/>
                  <path id="Path_254" data-name="Path 254" d="M88.863,169.147a1.79,1.79,0,0,0,2.379-.71,1.678,1.678,0,0,0-.733-2.3,1.787,1.787,0,0,0-2.377.708A1.68,1.68,0,0,0,88.863,169.147Z" transform="translate(-6.371 -58.442)" fill="#fff"/>
                  <path id="Path_255" data-name="Path 255" d="M92.23,171.147a1.963,1.963,0,0,0,2.612-.78,1.842,1.842,0,0,0-.8-2.531,1.964,1.964,0,0,0-2.614.778A1.845,1.845,0,0,0,92.23,171.147Z" transform="translate(-4.267 -57.447)" fill="#fff"/>
                  <path id="Path_256" data-name="Path 256" d="M95.6,173.168a2.158,2.158,0,0,0,2.872-.856,2.028,2.028,0,0,0-.884-2.782,2.162,2.162,0,0,0-2.873.856A2.027,2.027,0,0,0,95.6,173.168Z" transform="translate(-2.17 -56.457)" fill="#fff"/>
                  <path id="Path_257" data-name="Path 257" d="M98.958,175.19a2.355,2.355,0,0,0,3.131-.934,2.21,2.21,0,0,0-.964-3.034,2.353,2.353,0,0,0-3.13.934A2.209,2.209,0,0,0,98.958,175.19Z" transform="translate(-0.073 -55.468)" fill="#fff"/>
                  <path id="Path_258" data-name="Path 258" d="M102.336,177a2.372,2.372,0,0,0,3.154-.941,2.226,2.226,0,0,0-.971-3.058,2.372,2.372,0,0,0-3.154.941A2.229,2.229,0,0,0,102.336,177Z" transform="translate(2.092 -54.416)" fill="#fff"/>
                  <path id="Path_259" data-name="Path 259" d="M43.1,149.975a2.371,2.371,0,0,0,3.154-.941,2.227,2.227,0,0,0-.971-3.056,2.372,2.372,0,0,0-3.154.941A2.226,2.226,0,0,0,43.1,149.975Z" transform="translate(-35.984 -70.409)" fill="#fff"/>
                  <path id="Path_260" data-name="Path 260" d="M46.481,151.764a2.372,2.372,0,0,0,3.154-.941,2.227,2.227,0,0,0-.971-3.058,2.371,2.371,0,0,0-3.154.942A2.227,2.227,0,0,0,46.481,151.764Z" transform="translate(-33.811 -69.351)" fill="#fff"/>
                  <path id="Path_261" data-name="Path 261" d="M49.86,153.552a2.37,2.37,0,0,0,3.154-.941,2.226,2.226,0,0,0-.971-3.056,2.371,2.371,0,0,0-3.154.941A2.227,2.227,0,0,0,49.86,153.552Z" transform="translate(-31.639 -68.292)" fill="#fff"/>
                  <path id="Path_262" data-name="Path 262" d="M53.239,155.341a2.373,2.373,0,0,0,3.156-.942,2.227,2.227,0,0,0-.971-3.056,2.374,2.374,0,0,0-3.156.941A2.229,2.229,0,0,0,53.239,155.341Z" transform="translate(-29.467 -67.234)" fill="#fff"/>
                  <path id="Path_263" data-name="Path 263" d="M56.629,156.959a2.231,2.231,0,0,0,2.967-.885,2.093,2.093,0,0,0-.913-2.873,2.228,2.228,0,0,0-2.965.885A2.091,2.091,0,0,0,56.629,156.959Z" transform="translate(-27.241 -66.125)" fill="#fff"/>
                  <path id="Path_264" data-name="Path 264" d="M60.02,158.557a2.07,2.07,0,0,0,2.755-.821,1.946,1.946,0,0,0-.848-2.669,2.072,2.072,0,0,0-2.755.823A1.945,1.945,0,0,0,60.02,158.557Z" transform="translate(-25.007 -65.01)" fill="#fff"/>
                  <path id="Path_265" data-name="Path 265" d="M63.41,160.177a1.931,1.931,0,0,0,2.566-.766,1.811,1.811,0,0,0-.79-2.486,1.929,1.929,0,0,0-2.566.766A1.813,1.813,0,0,0,63.41,160.177Z" transform="translate(-22.78 -63.902)" fill="#fff"/>
                  <path id="Path_266" data-name="Path 266" d="M66.8,161.838a1.823,1.823,0,0,0,2.425-.723,1.712,1.712,0,0,0-.747-2.349,1.82,1.82,0,0,0-2.423.723A1.71,1.71,0,0,0,66.8,161.838Z" transform="translate(-20.567 -62.806)" fill="#fff"/>
                  <path id="Path_267" data-name="Path 267" d="M70.184,163.521a1.735,1.735,0,0,0,2.307-.689,1.627,1.627,0,0,0-.71-2.235,1.733,1.733,0,0,0-2.306.688A1.629,1.629,0,0,0,70.184,163.521Z" transform="translate(-18.361 -61.716)" fill="#fff"/>
                  <path id="Path_268" data-name="Path 268" d="M73.565,165.266a1.7,1.7,0,0,0,2.261-.673,1.6,1.6,0,0,0-.7-2.19,1.7,1.7,0,0,0-2.26.673A1.6,1.6,0,0,0,73.565,165.266Z" transform="translate(-16.175 -60.645)" fill="#fff"/>
                  <path id="Path_269" data-name="Path 269" d="M76.944,167.055a1.7,1.7,0,0,0,2.26-.675,1.6,1.6,0,0,0-.7-2.19,1.7,1.7,0,0,0-2.259.675A1.6,1.6,0,0,0,76.944,167.055Z" transform="translate(-14.003 -59.587)" fill="#fff"/>
                  <path id="Path_270" data-name="Path 270" d="M80.319,168.929a1.771,1.771,0,0,0,2.354-.7,1.663,1.663,0,0,0-.726-2.281,1.77,1.77,0,0,0-2.354.7A1.663,1.663,0,0,0,80.319,168.929Z" transform="translate(-11.858 -58.553)" fill="#fff"/>
                  <path id="Path_271" data-name="Path 271" d="M83.691,170.822a1.861,1.861,0,0,0,2.472-.737,1.746,1.746,0,0,0-.762-2.4,1.857,1.857,0,0,0-2.471.737A1.744,1.744,0,0,0,83.691,170.822Z" transform="translate(-9.72 -57.526)" fill="#fff"/>
                  <path id="Path_272" data-name="Path 272" d="M87.06,172.759a1.983,1.983,0,0,0,2.637-.786,1.86,1.86,0,0,0-.812-2.555,1.982,1.982,0,0,0-2.637.786A1.862,1.862,0,0,0,87.06,172.759Z" transform="translate(-7.596 -56.512)" fill="#fff"/>
                  <path id="Path_273" data-name="Path 273" d="M90.429,174.716a2.122,2.122,0,0,0,2.824-.842,1.994,1.994,0,0,0-.869-2.738,2.124,2.124,0,0,0-2.824.844A1.992,1.992,0,0,0,90.429,174.716Z" transform="translate(-5.478 -55.504)" fill="#fff"/>
                  <path id="Path_274" data-name="Path 274" d="M93.793,176.738a2.32,2.32,0,0,0,3.085-.92,2.176,2.176,0,0,0-.95-2.988,2.318,2.318,0,0,0-3.084.92A2.177,2.177,0,0,0,93.793,176.738Z" transform="translate(-3.381 -54.514)" fill="#fff"/>
                  <path id="Path_275" data-name="Path 275" d="M97.169,178.59a2.371,2.371,0,0,0,3.154-.941,2.227,2.227,0,0,0-.971-3.056,2.372,2.372,0,0,0-3.154.941A2.226,2.226,0,0,0,97.169,178.59Z" transform="translate(-1.229 -53.475)" fill="#fff"/>
                  <path id="Path_276" data-name="Path 276" d="M100.548,180.379a2.372,2.372,0,0,0,3.154-.941,2.227,2.227,0,0,0-.971-3.056,2.371,2.371,0,0,0-3.154.941A2.226,2.226,0,0,0,100.548,180.379Z" transform="translate(0.943 -52.416)" fill="#fff"/>
                  <path id="Path_277" data-name="Path 277" d="M41.313,153.354a2.373,2.373,0,0,0,3.156-.941,2.227,2.227,0,0,0-.973-3.056,2.372,2.372,0,0,0-3.154.941A2.227,2.227,0,0,0,41.313,153.354Z" transform="translate(-37.133 -68.409)" fill="#fff"/>
                  <path id="Path_278" data-name="Path 278" d="M44.693,155.143a2.372,2.372,0,0,0,3.154-.941,2.227,2.227,0,0,0-.971-3.056,2.37,2.37,0,0,0-3.154.941A2.226,2.226,0,0,0,44.693,155.143Z" transform="translate(-34.961 -67.351)" fill="#fff"/>
                  <path id="Path_279" data-name="Path 279" d="M48.072,156.931a2.371,2.371,0,0,0,3.154-.941,2.227,2.227,0,0,0-.971-3.056,2.372,2.372,0,0,0-3.154.941A2.226,2.226,0,0,0,48.072,156.931Z" transform="translate(-32.789 -66.292)" fill="#fff"/>
                  <path id="Path_280" data-name="Path 280" d="M51.451,158.72a2.372,2.372,0,0,0,3.154-.941,2.228,2.228,0,0,0-.971-3.058,2.371,2.371,0,0,0-3.154.942A2.227,2.227,0,0,0,51.451,158.72Z" transform="translate(-30.617 -65.234)" fill="#fff"/>
                  <path id="Path_281" data-name="Path 281" d="M54.83,160.508a2.37,2.37,0,0,0,3.154-.941,2.226,2.226,0,0,0-.971-3.056,2.371,2.371,0,0,0-3.154.941A2.227,2.227,0,0,0,54.83,160.508Z" transform="translate(-28.445 -64.176)" fill="#fff"/>
                  <path id="Path_282" data-name="Path 282" d="M58.217,162.169a2.264,2.264,0,0,0,3.013-.9,2.126,2.126,0,0,0-.927-2.919,2.267,2.267,0,0,0-3.015.9A2.128,2.128,0,0,0,58.217,162.169Z" transform="translate(-26.232 -63.079)" fill="#fff"/>
                  <path id="Path_283" data-name="Path 283" d="M61.607,163.789a2.121,2.121,0,0,0,2.824-.844,1.993,1.993,0,0,0-.869-2.736,2.122,2.122,0,0,0-2.824.842A1.994,1.994,0,0,0,61.607,163.789Z" transform="translate(-24.005 -61.971)" fill="#fff"/>
                  <path id="Path_284" data-name="Path 284" d="M64.993,165.47a2.036,2.036,0,0,0,2.707-.807,1.911,1.911,0,0,0-.835-2.623,2.033,2.033,0,0,0-2.706.809A1.909,1.909,0,0,0,64.993,165.47Z" transform="translate(-21.799 -60.881)" fill="#fff"/>
                  <path id="Path_285" data-name="Path 285" d="M68.378,167.174a1.964,1.964,0,0,0,2.612-.778,1.845,1.845,0,0,0-.8-2.533,1.964,1.964,0,0,0-2.614.78A1.843,1.843,0,0,0,68.378,167.174Z" transform="translate(-19.6 -59.798)" fill="#fff"/>
                  <path id="Path_286" data-name="Path 286" d="M71.758,168.943a1.946,1.946,0,0,0,2.589-.774,1.827,1.827,0,0,0-.8-2.509,1.947,1.947,0,0,0-2.589.772A1.83,1.83,0,0,0,71.758,168.943Z" transform="translate(-17.42 -58.733)" fill="#fff"/>
                  <path id="Path_287" data-name="Path 287" d="M75.137,170.73a1.949,1.949,0,0,0,2.591-.772,1.827,1.827,0,0,0-.8-2.509,1.944,1.944,0,0,0-2.589.772A1.828,1.828,0,0,0,75.137,170.73Z" transform="translate(-15.248 -57.675)" fill="#fff"/>
                  <path id="Path_288" data-name="Path 288" d="M78.513,172.583a2,2,0,0,0,2.66-.794,1.878,1.878,0,0,0-.82-2.577,2,2,0,0,0-2.66.793A1.88,1.88,0,0,0,78.513,172.583Z" transform="translate(-13.096 -56.635)" fill="#fff"/>
                  <path id="Path_289" data-name="Path 289" d="M81.885,174.477a2.088,2.088,0,0,0,2.778-.829,1.962,1.962,0,0,0-.856-2.692,2.087,2.087,0,0,0-2.776.829A1.959,1.959,0,0,0,81.885,174.477Z" transform="translate(-10.958 -55.608)" fill="#fff"/>
                  <path id="Path_290" data-name="Path 290" d="M85.255,176.393a2.2,2.2,0,0,0,2.919-.872,2.058,2.058,0,0,0-.9-2.827,2.192,2.192,0,0,0-2.918.871A2.061,2.061,0,0,0,85.255,176.393Z" transform="translate(-8.827 -54.587)" fill="#fff"/>
                  <path id="Path_291" data-name="Path 291" d="M88.626,178.33a2.319,2.319,0,0,0,3.084-.92,2.176,2.176,0,0,0-.95-2.988,2.317,2.317,0,0,0-3.084.918A2.178,2.178,0,0,0,88.626,178.33Z" transform="translate(-6.703 -53.573)" fill="#fff"/>
                  <path id="Path_292" data-name="Path 292" d="M92,180.181a2.37,2.37,0,0,0,3.154-.941,2.226,2.226,0,0,0-.971-3.056,2.371,2.371,0,0,0-3.154.941A2.227,2.227,0,0,0,92,180.181Z" transform="translate(-4.551 -52.533)" fill="#fff"/>
                  <path id="Path_293" data-name="Path 293" d="M95.38,181.97a2.373,2.373,0,0,0,3.156-.942,2.227,2.227,0,0,0-.971-3.056,2.374,2.374,0,0,0-3.156.941A2.229,2.229,0,0,0,95.38,181.97Z" transform="translate(-2.379 -51.475)" fill="#fff"/>
                  <path id="Path_294" data-name="Path 294" d="M98.759,183.758a2.374,2.374,0,0,0,3.156-.941,2.227,2.227,0,0,0-.971-3.056,2.372,2.372,0,0,0-3.156.941A2.227,2.227,0,0,0,98.759,183.758Z" transform="translate(-0.207 -50.416)" fill="#fff"/>
                  <path id="Path_295" data-name="Path 295" d="M39.525,156.734a2.372,2.372,0,0,0,3.154-.941,2.227,2.227,0,0,0-.971-3.058,2.372,2.372,0,0,0-3.154.941A2.229,2.229,0,0,0,39.525,156.734Z" transform="translate(-38.283 -66.409)" fill="#fff"/>
                  <path id="Path_296" data-name="Path 296" d="M42.9,158.522a2.372,2.372,0,0,0,3.154-.941,2.226,2.226,0,0,0-.971-3.056,2.371,2.371,0,0,0-3.154.941A2.227,2.227,0,0,0,42.9,158.522Z" transform="translate(-36.111 -65.351)" fill="#fff"/>
                  <path id="Path_297" data-name="Path 297" d="M46.283,160.31a2.37,2.37,0,0,0,3.154-.941,2.226,2.226,0,0,0-.971-3.056,2.372,2.372,0,0,0-3.154.941A2.227,2.227,0,0,0,46.283,160.31Z" transform="translate(-33.939 -64.293)" fill="#fff"/>
                  <path id="Path_298" data-name="Path 298" d="M49.664,162.1a2.372,2.372,0,0,0,3.154-.941,2.227,2.227,0,0,0-.971-3.056,2.373,2.373,0,0,0-3.156.941A2.227,2.227,0,0,0,49.664,162.1Z" transform="translate(-31.767 -63.234)" fill="#fff"/>
                  <path id="Path_299" data-name="Path 299" d="M53.042,163.887a2.371,2.371,0,0,0,3.154-.941,2.227,2.227,0,0,0-.971-3.056,2.372,2.372,0,0,0-3.154.941A2.226,2.226,0,0,0,53.042,163.887Z" transform="translate(-29.594 -62.176)" fill="#fff"/>
                  <path id="Path_300" data-name="Path 300" d="M56.421,165.676a2.372,2.372,0,0,0,3.154-.941,2.227,2.227,0,0,0-.971-3.056,2.371,2.371,0,0,0-3.154.941A2.226,2.226,0,0,0,56.421,165.676Z" transform="translate(-27.422 -61.117)" fill="#fff"/>
                  <path id="Path_301" data-name="Path 301" d="M59.8,167.443a2.354,2.354,0,0,0,3.131-.934,2.212,2.212,0,0,0-.964-3.034,2.356,2.356,0,0,0-3.131.934A2.212,2.212,0,0,0,59.8,167.443Z" transform="translate(-25.243 -60.053)" fill="#fff"/>
                  <path id="Path_302" data-name="Path 302" d="M63.186,169.147a2.285,2.285,0,0,0,3.038-.906,2.145,2.145,0,0,0-.936-2.943,2.284,2.284,0,0,0-3.036.906A2.144,2.144,0,0,0,63.186,169.147Z" transform="translate(-23.044 -58.969)" fill="#fff"/>
                  <path id="Path_303" data-name="Path 303" d="M66.571,170.851a2.212,2.212,0,0,0,2.942-.879,2.076,2.076,0,0,0-.905-2.851,2.212,2.212,0,0,0-2.942.879A2.076,2.076,0,0,0,66.571,170.851Z" transform="translate(-20.844 -57.886)" fill="#fff"/>
                  <path id="Path_304" data-name="Path 304" d="M69.951,172.618a2.194,2.194,0,0,0,2.919-.871,2.06,2.06,0,0,0-.9-2.829,2.194,2.194,0,0,0-2.919.871A2.061,2.061,0,0,0,69.951,172.618Z" transform="translate(-18.665 -56.821)" fill="#fff"/>
                  <path id="Path_305" data-name="Path 305" d="M73.33,174.406a2.193,2.193,0,0,0,2.919-.871,2.06,2.06,0,0,0-.9-2.829,2.2,2.2,0,0,0-2.919.872A2.061,2.061,0,0,0,73.33,174.406Z" transform="translate(-16.493 -55.763)" fill="#fff"/>
                  <path id="Path_306" data-name="Path 306" d="M76.707,176.238a2.229,2.229,0,0,0,2.965-.885,2.1,2.1,0,0,0-.912-2.875,2.231,2.231,0,0,0-2.967.885A2.1,2.1,0,0,0,76.707,176.238Z" transform="translate(-14.335 -54.717)" fill="#fff"/>
                  <path id="Path_307" data-name="Path 307" d="M80.08,178.109a2.3,2.3,0,0,0,3.061-.912,2.161,2.161,0,0,0-.943-2.965,2.3,2.3,0,0,0-3.059.914A2.158,2.158,0,0,0,80.08,178.109Z" transform="translate(-12.19 -53.684)" fill="#fff"/>
                  <path id="Path_308" data-name="Path 308" d="M83.454,179.983a2.37,2.37,0,0,0,3.154-.941,2.225,2.225,0,0,0-.971-3.056,2.372,2.372,0,0,0-3.154.941A2.227,2.227,0,0,0,83.454,179.983Z" transform="translate(-10.045 -52.65)" fill="#fff"/>
                  <path id="Path_309" data-name="Path 309" d="M86.835,181.772a2.372,2.372,0,0,0,3.154-.941,2.227,2.227,0,0,0-.971-3.056,2.371,2.371,0,0,0-3.156.941A2.227,2.227,0,0,0,86.835,181.772Z" transform="translate(-7.873 -51.592)" fill="#fff"/>
                  <path id="Path_310" data-name="Path 310" d="M90.213,183.56a2.371,2.371,0,0,0,3.154-.941,2.227,2.227,0,0,0-.971-3.056,2.372,2.372,0,0,0-3.154.941A2.226,2.226,0,0,0,90.213,183.56Z" transform="translate(-5.701 -50.533)" fill="#fff"/>
                  <path id="Path_311" data-name="Path 311" d="M93.592,185.349a2.372,2.372,0,0,0,3.154-.941,2.227,2.227,0,0,0-.971-3.058,2.371,2.371,0,0,0-3.154.942A2.226,2.226,0,0,0,93.592,185.349Z" transform="translate(-3.528 -49.475)" fill="#fff"/>
                  <path id="Path_312" data-name="Path 312" d="M96.971,187.137a2.371,2.371,0,0,0,3.154-.941,2.226,2.226,0,0,0-.971-3.056,2.371,2.371,0,0,0-3.154.941A2.227,2.227,0,0,0,96.971,187.137Z" transform="translate(-1.356 -48.417)" fill="#fff"/>
                </g>
              </g>
            </g>
          </g>
        </g>
      </g>
      <text id="CASPER_GOLF" data-name="CASPER GOLF" transform="translate(71.043 389.792)" font-size="29" font-family="Poppins-Medium, Poppins" font-weight="500" letter-spacing="0.02em"><tspan x="0" y="0">CASPER GOLF</tspan></text>
    </g>
  </g>
</svg>
